<?xml version="1.0"?>
<svg xmlns="http://www.w3.org/2000/svg" viewBox="0 0 50 50">
    <path style="text-indent:0;text-align:start;line-height:normal;text-transform:none;block-progression:tb;-inkscape-font-specification:Bitstream Vera Sans" d="M 25 4 C 22.802666 4 21 5.8026661 21 8 L 21 10.0625 L 19 10.0625 L 18 10.0625 L 18 11.0625 L 18 16.8125 L 14.25 29 L 11 29 A 1.0001 1.0001 0 0 0 10.90625 29 A 1.0001 1.0001 0 0 0 10 30 C 10 33.801814 10.878234 36.676503 11.78125 38.65625 C 10.812955 38.382154 9.8132831 37.942078 9.0625 37.25 A 1.0001 1.0001 0 0 0 8.21875 37 A 1.0001 1.0001 0 0 0 7.71875 37.25 C 6.6649249 38.221352 5.1421297 38.764913 3.875 38.9375 A 1.0001 1.0001 0 1 0 4.125 40.90625 C 5.4806006 40.721613 7.0458241 40.16175 8.40625 39.15625 C 10.216721 40.48483 12.379521 41 13.9375 41 C 15.499189 41 17.624557 40.461184 19.4375 39.125 C 21.25537 40.474528 23.431737 41 25 41 C 26.568263 41 28.745228 40.474724 30.5625 39.125 C 32.376032 40.46099 34.500811 41 36.0625 41 C 37.620479 41 39.783279 40.48483 41.59375 39.15625 C 42.955533 40.162398 44.519903 40.721681 45.875 40.90625 A 1.0001 1.0001 0 1 0 46.125 38.9375 C 44.857288 38.764833 43.335644 38.221942 42.28125 37.25 A 1.0001 1.0001 0 0 0 40.9375 37.25 C 40.186717 37.942078 39.187045 38.382154 38.21875 38.65625 C 39.121766 36.676503 40 33.801814 40 30 A 1.0001 1.0001 0 0 0 39 29 L 35.75 29 L 32 16.8125 L 32 11.0625 L 32 10.0625 L 31 10.0625 L 29 10.0625 L 29 8 C 29 5.8026661 27.197334 4 25 4 z M 25 6 C 26.116666 6 27 6.8833339 27 8 L 27 10.0625 L 23 10.0625 L 23 8 C 23 6.8833339 23.883334 6 25 6 z M 20 12.0625 L 30 12.0625 L 30 16.0625 L 20 16.0625 L 20 12.0625 z M 19.71875 18.0625 L 30.28125 18.0625 L 33.625 29 L 16.375 29 L 19.71875 18.0625 z M 12.125 31 L 37.875 31 C 37.694467 34.545351 36.806518 37.198986 35.96875 38.75 A 1.0001 1.0001 0 0 0 35.875 38.96875 C 34.541561 38.928701 32.526502 38.454761 31.21875 37.25 A 1.0001 1.0001 0 0 0 29.875 37.25 C 28.511132 38.507225 26.325169 39 25 39 C 23.674831 39 21.49002 38.507519 20.125 37.25 A 1.0001 1.0001 0 0 0 18.78125 37.25 C 17.484008 38.445809 15.490094 38.922341 14.15625 38.96875 A 1.0001 1.0001 0 0 0 14.03125 38.75 C 13.193482 37.198986 12.305533 34.545351 12.125 31 z M 8.21875 42 A 1.0001 1.0001 0 0 0 7.71875 42.25 C 6.6649249 43.221352 5.1421297 43.764913 3.875 43.9375 A 1.0001 1.0001 0 1 0 4.125 45.90625 C 5.4806006 45.721613 7.0458241 45.16175 8.40625 44.15625 C 10.216721 45.48483 12.379521 46 13.9375 46 C 15.499189 46 17.624557 45.461184 19.4375 44.125 C 21.25537 45.474528 23.431737 46 25 46 C 26.568263 46 28.745228 45.474724 30.5625 44.125 C 32.376032 45.46099 34.500811 46 36.0625 46 C 37.620479 46 39.783279 45.48483 41.59375 44.15625 C 42.955533 45.162398 44.519903 45.721681 45.875 45.90625 A 1.0001 1.0001 0 1 0 46.125 43.9375 C 44.857288 43.764833 43.335644 43.221942 42.28125 42.25 A 1.0001 1.0001 0 0 0 40.9375 42.25 C 39.573632 43.507225 37.387669 44 36.0625 44 C 34.737331 44 32.58377 43.507519 31.21875 42.25 A 1.0001 1.0001 0 0 0 29.875 42.25 C 28.511132 43.507225 26.325169 44 25 44 C 23.674831 44 21.49002 43.507519 20.125 42.25 A 1.0001 1.0001 0 0 0 18.78125 42.25 C 17.417382 43.507225 15.262669 44 13.9375 44 C 12.612331 44 10.426368 43.507225 9.0625 42.25 A 1.0001 1.0001 0 0 0 8.21875 42 z" overflow="visible" font-family="Bitstream Vera Sans"/>
</svg>
