<?xml version="1.0" encoding="UTF-8" standalone="no"?>
<svg
   id="svg"
   version="1.1"
   width="400"
   height="283.45473465140475"
   viewBox="0, 0, 400,283.45473465140475"
   xmlns="http://www.w3.org/2000/svg"
   xmlns:svg="http://www.w3.org/2000/svg">
  <defs
     id="defs11" />
  <path
     id="path0"
     d="m 278.13204,2.6985715 c 0,0.143 -0.383,0.345 -0.851,0.448 -0.467,0.102 -0.85,0.297 -0.85,0.432 0,0.135 -0.351,0.414 -0.78,0.619 -0.428,0.206 -0.779,0.542 -0.779,0.747 0,0.206 -0.221,0.535 -0.492,0.733 -0.27,0.198 -0.402,0.45 -0.292,0.56 0.11,0.11 0.022,0.31 -0.197,0.445 -0.244,0.151 -0.445,0.912 -0.522,1.969 -0.068,0.948 -0.237,1.7239995 -0.374,1.7239995 -0.141,0 -0.249,7.528 -0.249,17.292 0,9.511 0.11,17.293 0.244,17.293 0.135,0 0.312,0.838 0.395,1.862 0.109,1.361 0.31,2.034 0.747,2.499 0.329,0.35 0.598,0.788 0.598,0.973 0,0.185 0.172,0.336 0.381,0.336 0.21,0 0.613,0.255 0.895,0.567 0.282,0.312 0.723,0.567 0.979,0.567 0.257,0 0.626,0.159 0.821,0.354 0.477,0.477 6.495,0.497 6.788,0.023 0.113,-0.183 0.545,-0.417 0.96,-0.522 0.75,-0.188 2.5,-1.857 2.5,-2.385 0,-0.152 0.216,-0.398 0.481,-0.546 0.354,-0.198 0.512,-0.762 0.6,-2.14 0.065,-1.029 0.232,-1.871 0.369,-1.871 0.329,0 0.331,-33.936 0.002,-34.139 -0.137,-0.085 -0.306,-0.9359995 -0.375,-1.8909995 -0.089,-1.238 -0.262,-1.813 -0.601,-2.003 -0.262,-0.147 -0.476,-0.426 -0.476,-0.622 0,-0.448 -1.754,-2.168 -2.211,-2.168 -0.187,0 -0.34,-0.117 -0.34,-0.261 0,-0.143 -0.383,-0.345 -0.851,-0.447 -0.468,-0.103 -0.85,-0.305 -0.85,-0.448 0,-0.144 -1.276,-0.261 -2.835,-0.261 -1.559,0 -2.835,0.117 -2.835,0.261 m -83.106,34.5799995 c -0.415,0.327 -0.825,0.595 -0.912,0.595 -0.721,0 -3.296,3.515 -3.296,4.498 0,0.333 -0.128,0.605 -0.284,0.605 -0.163,0 -0.283,0.897 -0.283,2.126 0,1.169 0.111,2.126 0.247,2.126 0.136,0 0.329,0.51 0.429,1.134 0.1,0.624 0.307,1.134 0.461,1.134 0.154,0 0.28,0.195 0.28,0.434 0,0.239 0.192,0.508 0.426,0.597 0.234,0.09 0.425,0.318 0.425,0.506 0,0.388 13.372,13.835 13.946,14.024 0.203,0.067 1.902,1.696 3.775,3.62 1.873,1.924 3.544,3.498 3.714,3.498 0.169,0 1.128,0.861 2.131,1.913 2.564,2.691 2.753,2.78 5.847,2.745 1.443,-0.017 2.708,-0.115 2.811,-0.218 0.103,-0.103 0.532,-0.188 0.953,-0.188 0.421,0 1.089,-0.255 1.486,-0.567 0.396,-0.312 0.857,-0.567 1.025,-0.567 0.167,0 0.382,-0.31 0.477,-0.688 0.095,-0.379 0.352,-0.757 0.572,-0.842 0.22,-0.084 0.4,-0.348 0.4,-0.587 0,-0.239 0.137,-0.434 0.306,-0.434 0.192,0 0.236,-0.316 0.119,-0.851 -0.124,-0.566 -0.076,-0.85 0.144,-0.85 0.238,0 0.304,-0.86 0.235,-3.057 l -0.096,-3.057 -2.197,-2.096 c -1.208,-1.152 -2.197,-2.239 -2.197,-2.414 0,-0.176 -1.594,-1.871 -3.543,-3.767 -1.949,-1.896 -3.544,-3.57 -3.544,-3.719 0,-0.318 -13.589,-14.012 -14.192,-14.303 -0.224,-0.107 -0.981,-0.533 -1.683,-0.945 -1.827,-1.074 -6.814,-1.327 -7.982,-0.405 m 165.317,-0.332 c -0.234,0.089 -0.489,0.238 -0.567,0.332 -0.256,0.307 -1.957,1.445 -2.16,1.445 -0.314,0 -13.988,13.716 -13.994,14.037 -0.002,0.158 -1.599,1.879 -3.548,3.823 -1.949,1.944 -3.544,3.645 -3.544,3.78 0,0.135 -0.957,1.157 -2.127,2.272 -1.169,1.115 -2.126,2.187 -2.126,2.382 10e-4,0.195 -0.095,0.354 -0.212,0.354 -0.353,0 0.118,7.057 0.502,7.519 0.191,0.23 0.24,0.419 0.108,0.419 -0.132,0 0.046,0.2 0.395,0.444 0.349,0.245 0.561,0.564 0.472,0.709 -0.09,0.145 -0.047,0.264 0.095,0.264 0.143,0 0.62,0.334 1.06,0.743 0.458,0.424 1.265,0.804 1.884,0.887 0.596,0.08 1.083,0.225 1.084,0.321 0,0.096 1.276,0.18 2.834,0.186 1.559,0.006 2.835,-0.089 2.835,-0.212 0,-0.123 0.172,-0.224 0.383,-0.224 0.211,0 1.092,-0.754 1.958,-1.676 0.866,-0.923 1.873,-1.837 2.239,-2.032 0.365,-0.196 2.317,-2.057 4.337,-4.135 2.019,-2.079 3.821,-3.78 4.004,-3.78 0.182,0 1.974,-1.735 3.982,-3.855 2.007,-2.121 5.198,-5.418 7.089,-7.327 1.892,-1.91 3.536,-3.778 3.653,-4.153 0.117,-0.375 0.355,-0.773 0.529,-0.884 0.203,-0.13 0.316,-1.38 0.316,-3.483 0,-2.103 -0.113,-3.354 -0.316,-3.483 -0.174,-0.112 -0.407,-0.494 -0.518,-0.85 -0.298,-0.956 -2.78,-3.18 -3.548,-3.18 -0.162,0 -0.295,-0.142 -0.295,-0.316 0,-0.177 -0.25,-0.251 -0.567,-0.169 -0.312,0.082 -0.638,0.033 -0.725,-0.108 -0.171,-0.276 -4.807,-0.319 -5.512,-0.05 m -86.747,32.353 c 0,0.134 -0.919,0.328 -2.043,0.433 -1.124,0.104 -2.112,0.294 -2.197,0.422 -0.085,0.128 -0.779,0.316 -1.543,0.418 -0.764,0.103 -1.529,0.302 -1.701,0.443 -0.171,0.141 -0.918,0.346 -1.658,0.457 -0.741,0.11 -1.347,0.305 -1.347,0.434 0,0.129 -0.574,0.32 -1.276,0.425 -0.701,0.106 -1.275,0.291 -1.275,0.411 0,0.121 -0.447,0.304 -0.992,0.406 -0.546,0.103 -0.993,0.295 -0.993,0.429 0,0.133 -0.638,0.395 -1.417,0.582 -0.78,0.187 -1.418,0.441 -1.418,0.565 0,0.123 -0.349,0.312 -0.776,0.419 -0.427,0.107 -0.842,0.281 -0.922,0.385 -0.204,0.269 -1.045,0.77 -2.766,1.649 -0.819,0.418 -1.489,0.866 -1.489,0.997 0,0.131 -0.195,0.237 -0.434,0.237 -0.239,0 -0.51,0.199 -0.603,0.442 -0.094,0.243 -0.324,0.383 -0.511,0.31 -0.188,-0.072 -0.572,0.176 -0.854,0.551 -0.282,0.375 -0.69,0.682 -0.906,0.682 -0.217,0 -0.466,0.186 -0.554,0.414 -0.087,0.228 -0.419,0.497 -0.736,0.598 -0.318,0.101 -1.218,0.871 -2,1.712 -0.783,0.84 -1.57,1.528 -1.749,1.528 -0.403,0 -2.425,2.04 -2.425,2.446 0,0.162 -0.638,0.899 -1.418,1.637 -0.779,0.738 -1.417,1.469 -1.417,1.625 0,0.155 -0.383,0.604 -0.851,0.998 -0.467,0.393 -0.85,0.867 -0.85,1.052 0,0.186 -0.255,0.556 -0.567,0.823 -0.312,0.267 -0.567,0.664 -0.567,0.883 0,0.219 -0.191,0.471 -0.425,0.561 -0.234,0.09 -0.425,0.358 -0.425,0.597 0,0.239 -0.105,0.434 -0.234,0.434 -0.128,0 -0.52,0.574 -0.87,1.276 -0.35,0.702 -0.746,1.276 -0.878,1.276 -0.133,0 -0.325,0.382 -0.428,0.85 -0.103,0.468 -0.312,0.85 -0.465,0.85 -0.152,0 -0.204,0.118999 -0.114,0.263999 0.09,0.146 0.033,0.344 -0.125,0.442 -0.159,0.098 -0.288,0.554 -0.288,1.012 0,0.459 -0.128,0.834 -0.284,0.834 -0.156,0 -0.283,0.702 -0.283,1.559 0,0.858 0.113,1.559 0.251,1.559 0.138,0 0.337,0.574 0.443,1.276 0.105,0.702 0.311,1.276 0.457,1.276 0.146,0 0.266,0.147 0.266,0.327 0,0.391 2.106,2.507 2.495,2.507 0.149,0 0.421,0.182 0.605,0.404 0.184,0.221 0.838,0.488 1.452,0.591 0.615,0.104 1.118,0.306 1.118,0.448 0,0.142 0.638,0.258 1.417,0.258 0.78,0 1.418,-0.11 1.418,-0.246 0,-0.135 0.539,-0.318 1.198,-0.407 0.66,-0.088 1.244,-0.296 1.3,-0.462 0.055,-0.166 0.259,-0.302 0.453,-0.302 0.193,0 0.651,-0.319 1.018,-0.709 0.366,-0.39 0.805,-0.708 0.977,-0.708 0.171,0 0.562,-0.479 0.869,-1.064 0.307,-0.584 0.704,-1.157 0.883,-1.272 0.179,-0.115 0.411,-0.548 0.515,-0.964 0.104,-0.415 0.501,-1 0.882,-1.3 0.381,-0.299 0.693,-0.73 0.693,-0.958 0,-0.227 0.191,-0.487 0.425,-0.577 0.234,-0.089 0.425,-0.334 0.425,-0.544 0,-0.21 0.447,-0.815 0.993,-1.345 0.545,-0.53 0.992,-1.088 0.992,-1.239 0,-0.152 1.116,-1.319999 2.48,-2.596999 3.507,-3.282 3.969,-3.671 4.579,-3.865 0.298,-0.095 0.614,-0.359 0.702,-0.587 0.087,-0.228 0.354,-0.414 0.593,-0.414 0.238,0 0.434,-0.119 0.434,-0.264 0,-0.145 0.606,-0.557 1.346,-0.915 0.741,-0.358 1.793,-0.921 2.339,-1.251 0.546,-0.33 1.152,-0.545 1.347,-0.479 0.195,0.067 0.354,-0.002 0.354,-0.153 0,-0.261 1.041,-0.719 1.488,-0.654 0.117,0.017 0.213,-0.097 0.213,-0.253 0,-0.156 0.248,-0.283 0.55,-0.283 0.303,0 0.622,-0.116 0.709,-0.257 0.088,-0.142 0.414,-0.191 0.726,-0.109 0.311,0.081 0.566,0.022 0.566,-0.132 0,-0.154 0.667,-0.368 1.482,-0.476 0.814,-0.108 1.627,-0.319 1.807,-0.467 0.179,-0.149 1.554,-0.352 3.054,-0.45 1.501,-0.099 2.729,-0.288 2.729,-0.42 0,-0.133 1.913,-0.241 4.252,-0.241 2.339,0 4.253,0.111 4.253,0.247 0,0.136 1.013,0.306 2.252,0.378 1.238,0.071 2.418,0.264 2.622,0.429 0.204,0.164 0.817,0.391 1.362,0.505 0.546,0.114 1.12,0.306 1.276,0.426 0.156,0.119 0.698,0.306 1.205,0.415 0.507,0.108 0.921,0.301 0.921,0.429 0,0.128 0.638,0.386 1.418,0.573 0.779,0.187 1.417,0.445 1.417,0.573 0,0.128 0.383,0.316 0.85,0.419 0.468,0.103 0.851,0.294 0.851,0.425 0,0.132 0.372,0.321 0.827,0.42 0.454,0.1 0.897,0.366 0.983,0.59 0.086,0.224 0.352,0.408 0.591,0.408 0.238,0 0.434,0.113 0.434,0.25 0,0.138 0.223,0.333 0.496,0.433 0.964,0.353 2.055,1.052 2.055,1.317 0,0.147 0.168,0.268 0.372,0.268 0.205,0 0.738,0.381 1.184,0.847 0.447,0.466 0.861,0.799 0.921,0.739 0.159,-0.159 5.13,4.760999 5.013,4.960999 -0.055,0.093 0.279,0.532 0.741,0.975 0.463,0.443 0.841,0.972 0.841,1.177 0,0.205 0.12,0.372 0.268,0.372 0.264,0 0.963,1.091 1.317,2.056 0.1,0.272 0.284,0.496 0.41,0.496 0.125,0 0.309,0.372 0.409,0.826 0.1,0.455 0.365,0.898 0.59,0.984 0.224,0.086 0.408,0.408 0.408,0.715 0,0.308 0.117,0.632 0.261,0.721 0.144,0.089 0.346,0.543 0.448,1.009 0.102,0.466 0.298,0.847 0.434,0.847 0.137,0 0.332,0.447 0.434,0.993 0.103,0.545 0.315,0.992 0.472,0.992 0.156,0 0.218,0.255 0.136,0.567 -0.081,0.312 -0.032,0.567 0.109,0.567 0.141,0 0.257,0.319 0.257,0.709 0,0.389 0.13,0.708 0.289,0.708 0.163,0 0.215,0.295 0.119,0.678 -0.094,0.373 -0.033,0.763 0.136,0.867 0.169,0.104 0.306,0.48 0.306,0.834 0,0.355 0.092,0.737 0.205,0.849 0.112,0.113 0.166,0.644 0.12,1.181 -0.049,0.561 0.045,0.977 0.221,0.977 0.176,0 0.305,0.581 0.305,1.371 0,0.753 0.09,1.46 0.2,1.57 0.111,0.111 0.164,1.28 0.118,2.599 -0.049,1.419 0.03,2.398 0.193,2.398 0.151,0 0.363,0.59 0.471,1.31 0.127,0.842 0.442,1.538 0.883,1.946 0.377,0.35 0.686,0.781 0.686,0.958 0,0.177 0.187,0.322 0.416,0.322 0.228,0 0.551,0.255 0.718,0.567 0.178,0.331 0.594,0.567 1.002,0.567 0.385,0 0.699,0.136 0.699,0.302 0,0.174 0.242,0.226 0.567,0.123 0.325,-0.103 0.567,-0.051 0.567,0.123 0,0.405 4.439,0.405 4.69,0 0.102,-0.167 0.365,-0.235 0.583,-0.151 0.218,0.084 0.397,0.042 0.397,-0.092 0,-0.134 0.331,-0.327 0.735,-0.428 0.711,-0.179 2.667,-1.844 2.667,-2.271 0,-0.115 0.255,-0.534 0.567,-0.931 0.311,-0.396 0.567,-1.086 0.567,-1.533 0,-0.446 0.127,-0.812 0.283,-0.812 0.175,0 0.284,-1.417 0.284,-3.685 0,-2.027 -0.109,-3.686 -0.241,-3.686 -0.132,0 -0.324,-1.364 -0.426,-3.031 -0.102,-1.667 -0.295,-3.102 -0.43,-3.189 -0.135,-0.087 -0.336,-1.019 -0.448,-2.072 -0.111,-1.052 -0.307,-1.913 -0.436,-1.913 -0.129,0 -0.322,-0.638 -0.429,-1.417 -0.107,-0.78 -0.319,-1.418 -0.471,-1.418 -0.152,0 -0.195,-0.255 -0.096,-0.567 0.103,-0.325 0.051,-0.567 -0.123,-0.567 -0.166,0 -0.302,-0.191 -0.302,-0.425 0,-0.234 -0.136,-0.425 -0.302,-0.425 -0.165,0 -0.267,-0.224 -0.225,-0.496 0.042,-0.273 -0.105,-0.815 -0.326,-1.205 -0.221,-0.39 -0.375,-0.805 -0.341,-0.922 0.033,-0.117 -0.058,-0.212 -0.201,-0.212 -0.144,0 -0.345,-0.383 -0.448,-0.851 -0.103,-0.467 -0.294,-0.85 -0.425,-0.85 -0.131,0 -0.323,-0.383 -0.425,-0.851 -0.103,-0.467 -0.294,-0.85 -0.426,-0.85 -0.131,0 -0.322,-0.382 -0.424,-0.848999 -0.103,-0.467 -0.338,-0.945 -0.522,-1.063 -0.184,-0.118 -0.586,-0.693 -0.893,-1.277 -0.306,-0.585 -0.656,-1.063 -0.776,-1.063 -0.121,0 -0.219,-0.176 -0.219,-0.391 0,-0.215 -0.195,-0.552 -0.433,-0.749 -0.237,-0.197 -0.372,-0.418 -0.3,-0.49 0.072,-0.072 0.012,-0.278 -0.133,-0.456 -0.145,-0.178 -0.712,-0.898 -1.259,-1.6 -0.547,-0.701 -1.313,-1.618 -1.703,-2.037 -0.39,-0.419 -0.708,-0.876 -0.708,-1.016 0,-0.14 -0.638,-0.859 -1.418,-1.597 -0.779,-0.738 -1.417,-1.489 -1.417,-1.67 0,-0.317 -2.242,-2.467 -2.574,-2.467 -0.091,-0.001 -0.856,-0.644 -1.701,-1.43 -2.666,-2.481 -3.035,-2.79 -3.168,-2.656 -0.072,0.071 -0.292,-0.064 -0.489,-0.302 -0.197,-0.238 -0.534,-0.432 -0.749,-0.432 -0.215,0 -0.391,-0.125 -0.391,-0.278 0,-0.153 -0.309,-0.356 -0.688,-0.451 -0.378,-0.095 -0.757,-0.353 -0.841,-0.572 -0.085,-0.22 -0.349,-0.4 -0.588,-0.4 -0.239,0 -0.434,-0.124 -0.434,-0.275 0,-0.292 -3.111,-1.879 -3.473,-1.772 -0.117,0.034 -0.212,-0.065 -0.212,-0.221 0,-0.156 -0.192,-0.283 -0.426,-0.283 -0.234,0 -0.425,-0.118 -0.425,-0.261 0,-0.144 -0.383,-0.345 -0.85,-0.448 -0.468,-0.103 -0.851,-0.313 -0.851,-0.467 0,-0.154 -0.255,-0.199 -0.567,-0.1 -0.314,0.1 -0.567,0.051 -0.567,-0.11 0,-0.159 -0.448,-0.374 -0.995,-0.476 -0.548,-0.103 -1.058,-0.289 -1.136,-0.414 -0.077,-0.124 -0.649,-0.312 -1.271,-0.417 -0.622,-0.106 -1.195,-0.296 -1.274,-0.424 -0.079,-0.128 -0.781,-0.32 -1.561,-0.427 -0.779,-0.107 -1.417,-0.296 -1.417,-0.419 0,-0.123 -0.861,-0.315 -1.913,-0.426 -1.053,-0.112 -2.075,-0.334 -2.271,-0.495 -0.196,-0.161 -0.802,-0.22 -1.346,-0.132 -0.545,0.088 -0.99,0.041 -0.99,-0.105 0,-0.146 -0.766,-0.266 -1.701,-0.266 -0.945,0 -1.701,-0.126 -1.701,-0.283 0,-0.181 -2.315,-0.284 -6.378,-0.284 -3.509,0 -6.379,0.11 -6.379,0.243 m -127.117,33.417999 c -0.115,0.116 -1.015,0.169 -2,0.118 -0.985,-0.051 -1.867,0.031 -1.96,0.182 -0.093,0.15 -1.383,0.364 -2.866,0.475 -1.484,0.112 -2.698,0.305 -2.698,0.431 0,0.126 -0.893,0.318 -1.985,0.428 -1.092,0.109 -2.051,0.305 -2.131,0.434 -0.079,0.129 -0.844,0.322 -1.699,0.429 -0.856,0.107 -1.555,0.291 -1.555,0.408 0,0.118 -0.633,0.299 -1.406,0.401 -0.773,0.103 -1.488,0.319 -1.588,0.481 -0.1,0.162 -0.356,0.228 -0.569,0.146 -0.213,-0.082 -0.463,-0.027 -0.555,0.123 -0.093,0.149 -0.416,0.271 -0.718,0.271 -0.303,0 -0.55,0.113 -0.55,0.251 0,0.138 -0.572,0.337 -1.27,0.442 -0.698,0.104 -1.344,0.312 -1.437,0.462 -0.092,0.149 -0.292,0.194 -0.444,0.101 -0.152,-0.094 -0.43,-0.047 -0.618,0.104 -0.188,0.151 -0.757,0.364 -1.263,0.472 -0.507,0.108 -0.922,0.3 -0.922,0.427 0,0.126 -0.446,0.313 -0.992,0.415 -0.546,0.102 -0.992,0.298 -0.992,0.434 0,0.137 -0.383,0.333 -0.851,0.435 -0.467,0.103 -0.85,0.294 -0.85,0.425 0,0.132 -0.383,0.323 -0.85,0.426 -0.468,0.102 -0.851,0.294 -0.851,0.425 0,0.131 -0.383,0.322 -0.85,0.425 -0.468,0.103 -0.851,0.294 -0.851,0.425 0,0.132 -0.383,0.323 -0.85,0.426 -0.468,0.102 -0.851,0.311 -0.851,0.464 0,0.153 -0.119,0.204 -0.264,0.115 -0.145,-0.09 -0.454,0.107 -0.686,0.439 -0.232,0.331 -0.56,0.517 -0.728,0.413 -0.168,-0.104 -0.306,-0.084 -0.306,0.044 0,0.23 -0.245,0.39 -1.865,1.214 -0.455,0.233 -0.997,0.583 -1.203,0.78 -0.206,0.197 -0.543,0.358 -0.749,0.358 -0.206,0 -0.448,0.191 -0.538,0.425 -0.09,0.234 -0.359,0.425 -0.597,0.425 -0.239,0 -0.434,0.131 -0.434,0.291 0,0.159 -0.287,0.42 -0.638,0.579 -1.182,0.535 -1.906999,1.02 -2.436999,1.631 -0.289,0.334 -0.588,0.546 -0.662,0.472 -0.075,-0.075 -0.435,0.183 -0.8,0.572 -0.366,0.389 -0.804,0.707 -0.973,0.707 -0.17,0 -0.624,0.383 -1.011,0.851 -0.386,0.468 -0.817,0.85 -0.958,0.85 -0.573,0 -9.531,8.511 -9.531,9.055 0,0.159 -0.574,0.818 -1.275,1.465 -0.702,0.646 -1.276,1.332 -1.276,1.522 0,0.191 -0.383,0.64 -0.85,0.999 -0.468,0.358 -0.851,0.804 -0.851,0.99 0,0.187 -0.255,0.57 -0.567,0.852 -0.312,0.283 -0.567,0.621 -0.567,0.753 0,0.132 -0.223,0.483 -0.496,0.78 -0.798,0.869 -1.632,2.135 -1.557,2.365 0.038,0.117 -0.03,0.213 -0.15,0.213 -0.121,0 -0.47,0.478 -0.777,1.063 -0.307,0.585 -0.709,1.16 -0.893,1.277 -0.184,0.118 -0.416,0.586 -0.516,1.04 -0.1,0.454 -0.365,0.895 -0.589,0.981 -0.225,0.087 -0.408,0.352 -0.408,0.591 0,0.239 -0.118,0.434 -0.261,0.434 -0.144,0 -0.345,0.383 -0.448,0.851 -0.103,0.467 -0.294,0.85 -0.425,0.85 -0.131,0 -0.323,0.383 -0.425,0.851 -0.103,0.467 -0.288,0.85 -0.411,0.85 -0.124,0 -0.385,0.574 -0.582,1.276 -0.196,0.701 -0.468,1.275 -0.603,1.275 -0.136,0 -0.247,0.192 -0.247,0.426 0,0.234 -0.128,0.425 -0.283,0.425 -0.156,0 -0.263,0.096 -0.238,0.213 0.025,0.116 -0.103,0.571 -0.284,1.01 -0.181,0.439 -0.329,0.981 -0.329,1.205 0,0.224 -0.114,0.407 -0.253,0.407 -0.139,0 -0.334,0.351 -0.435,0.779 -0.159,0.68 -0.461,1.422 -1.302,3.199 -0.113,0.239 -0.3,0.877 -0.416,1.417 -0.116,0.541 -0.309,1.111 -0.429,1.267 -0.12,0.156 -0.311,0.73 -0.425,1.275 -0.114,0.546 -0.331,1.147 -0.482,1.335 -0.152,0.188 -0.199,0.466 -0.105,0.618 0.094,0.152 0.041,0.356 -0.117,0.454 -0.159,0.098 -0.288,0.553 -0.288,1.012 0,0.459 -0.142,0.834 -0.314,0.834 -0.194,0 -0.246,0.272 -0.137,0.708 0.103,0.409 0.056,0.709 -0.111,0.709 -0.159,0 -0.289,0.375 -0.289,0.834 0,0.458 -0.11,0.902 -0.245,0.985 -0.135,0.084 -0.184,0.474 -0.109,0.868 0.08,0.419 0.006,0.715 -0.18,0.715 -0.174,0 -0.316,0.327 -0.316,0.727 0,1.748 -0.198,1.824 -4.688,1.824 -2.729,0 -4.1,0.102 -4.1,0.304 0,0.189 -0.593,0.277 -1.555,0.232 -0.855,-0.039 -1.642,0.015 -1.748,0.122 -0.107,0.106 -0.619,0.193 -1.139,0.193 -0.519,0 -0.945,0.141 -0.945,0.314 0,0.193 -0.384,0.27 -0.992,0.199 -0.545,-0.064 -0.992,-0.014 -0.992,0.111 0,0.124 -0.375,0.226 -0.834,0.226 -0.458,0 -0.914,0.131 -1.013,0.291 -0.099,0.16 -0.33,0.268 -0.513,0.239 -0.183,-0.029 -0.588,0.044 -0.9,0.162 -0.312,0.117 -0.758,0.285 -0.992,0.373 -0.234,0.087 -0.529,0.136 -0.657,0.108 -0.127,-0.028 -0.573,0.189 -0.992,0.482 -0.418,0.293 -0.935,0.471 -1.148,0.397 -0.213,-0.075 -0.468,-0.025 -0.567,0.111 -0.252,0.346 -2.011,1.184 -2.944,1.402 -0.429,0.1 -0.779,0.286 -0.779,0.412 0,0.127 -0.383,0.315 -0.851,0.417 -0.468,0.103 -0.85,0.291 -0.85,0.418 0,0.204 -1.099,0.848 -3.757,2.203 -0.428,0.219 -0.779,0.516 -0.779,0.66 0,0.145 -0.172,0.263 -0.381,0.263 -0.21,0 -0.613,0.255 -0.895,0.567 -0.282,0.312 -0.627,0.567 -0.766,0.567 -0.139,0 -0.549,0.319 -0.91,0.709 -0.361,0.389 -0.783001,0.708 -0.937001,0.708 -0.155,0 -0.778,0.556 -1.385,1.236 -0.608,0.68 -1.412,1.397 -1.788,1.593 -0.779,0.409 -2.01,1.663 -2.01,2.049 0,0.142 -0.574,0.781 -1.275,1.419 -0.702,0.639 -1.276,1.322 -1.276,1.518 0,0.196 -0.351,0.662 -0.78,1.037 -0.836,0.73 -1.326,1.4 -1.765,2.417 -0.152,0.351 -0.392,0.638 -0.533,0.638 -0.142,0 -0.334999,0.223 -0.429999,0.496 -0.095,0.273 -0.481,1.038 -0.86,1.701 -0.378,0.662 -0.615,1.205 -0.526,1.205 0.089,0 -0.105,0.23 -0.43,0.513 -0.325,0.282 -0.677,0.856 -0.783,1.275 -0.105,0.42 -0.305,0.763 -0.444,0.763 -0.139,0 -0.232,0.096 -0.207,0.213 0.025,0.117 -0.102,0.571 -0.283,1.01 -0.182,0.439 -0.33,0.981 -0.33,1.205 0,0.224 -0.127,0.407 -0.283,0.407 -0.156,0 -0.284,0.191 -0.284,0.425 0,0.234 -0.115,0.425 -0.257,0.425 -0.141,0 -0.19,0.255 -0.108,0.567 0.082,0.315 0.008,0.567 -0.165,0.567 -0.173,0 -0.395,0.511 -0.495,1.134 -0.1,0.624 -0.278,1.134 -0.397,1.134 -0.118,0 -0.305,0.479 -0.414,1.063 -0.109,0.585 -0.33,1.222 -0.49,1.416 -0.161,0.194 -0.225,0.609 -0.143,0.922 0.081,0.312 0.033,0.568 -0.109,0.568 -0.141,0 -0.257,0.51 -0.257,1.134 0,0.644 -0.136,1.134 -0.315,1.134 -0.191,0 -0.266,0.342 -0.189,0.863 0.069,0.474 0.02,0.928 -0.11,1.009 -0.13,0.08 -0.236,0.904 -0.236,1.83 0,0.934 -0.126,1.684 -0.284,1.684 -0.18,0 -0.2829995,2.174 -0.2829995,5.953 0,3.275 0.1089995,5.954 0.2429995,5.954 0.133,0 0.33,1.045 0.436,2.323 0.107,1.278 0.308,2.461 0.448,2.629 0.14,0.169 0.342,0.973 0.45,1.788 0.109,0.814 0.293,1.481 0.411,1.481 0.118,0 0.302,0.701 0.409,1.559 0.108,0.857 0.299,1.559 0.427,1.559 0.127,0 0.315,0.447 0.417,0.992 0.103,0.546 0.323,0.992 0.49,0.992 0.167,0 0.239,0.25 0.159,0.554 -0.079,0.304 -0.062,0.591 0.038,0.638 0.324,0.15 1.174,1.856 1.194,2.396 0.01,0.288 0.395,1.161 0.855,1.94 0.46,0.78 0.913,1.641 1.007,1.914 0.093,0.273 0.282,0.496 0.42,0.496 0.137,0 0.25,0.195 0.25,0.434 0,0.239 0.18,0.503 0.4,0.588 0.22,0.084 0.477,0.463 0.572,0.841 0.095,0.379 0.298,0.689 0.450999,0.689 0.153,0 0.278,0.149 0.278,0.332 0,0.183 0.638,1.066 1.418,1.962 0.779,0.896 1.417,1.726 1.417,1.845 0,0.118 0.804,0.989 1.787,1.936 0.983,0.946 1.873,1.947 1.978,2.223 0.105,0.276 0.417,0.587 0.693,0.69 0.277,0.104 1.084,0.802 1.793,1.553 0.71,0.751 1.391,1.365 1.514,1.365 0.122,0 0.879001,0.574 1.681001,1.276 0.802,0.701 1.614,1.275 1.804,1.275 0.189,0 0.447,0.16 0.571,0.355 0.255,0.398 1.045,0.928 1.999,1.34 0.351,0.152 0.638,0.396 0.638,0.544 0,0.147 0.382,0.352 0.85,0.454 0.468,0.103 0.851,0.295 0.851,0.426 0,0.131 0.382,0.322 0.85,0.425 0.468,0.103 0.851,0.294 0.851,0.425 0,0.131 0.382,0.323 0.85,0.425 0.468,0.103 0.851,0.294 0.851,0.426 0,0.131 0.412,0.329 0.917,0.439 0.504,0.111 1.174,0.37 1.488,0.576 0.314,0.205 1.113,0.46 1.776,0.566 0.663,0.105 1.205,0.289 1.205,0.408 0,0.118 0.478,0.305 1.063,0.414 0.585,0.109 1.191,0.299 1.346,0.421 0.156,0.122 0.922,0.314 1.701,0.426 0.78,0.113 1.563,0.324 1.739,0.469 0.177,0.146 1.166,0.343 2.198,0.44 1.031,0.096 1.875,0.284 1.875,0.417 0,0.134 53.358999,0.243 119.205999,0.243 67.513,0 119.206,-0.107 119.206,-0.247 0,-0.136 1.148,-0.337 2.552,-0.447 1.403,-0.109 2.551,-0.302 2.551,-0.428 0,-0.126 0.829,-0.318 1.843,-0.427 1.013,-0.108 1.842,-0.31 1.842,-0.448 0,-0.138 0.638,-0.336 1.418,-0.44 0.779,-0.103 1.417,-0.284 1.417,-0.402 0,-0.118 0.574,-0.301 1.276,-0.406 0.702,-0.106 1.276,-0.326 1.276,-0.491 0,-0.164 0.255,-0.232 0.567,-0.151 0.311,0.082 0.567,0.033 0.567,-0.108 0,-0.142 0.319,-0.257 0.708,-0.257 0.39,0 0.709,-0.137 0.709,-0.303 0,-0.174 0.242,-0.226 0.567,-0.123 0.312,0.099 0.567,0.059 0.567,-0.089 0,-0.238 0.721,-0.576 1.559,-0.732 0.397,-0.074 1.955,-0.833 2.126,-1.036 0.262,-0.311 1.271,-0.64 1.772,-0.578 0.273,0.034 0.496,-0.064 0.496,-0.217 0,-0.154 0.383,-0.363 0.851,-0.466 0.467,-0.103 0.85,-0.304 0.85,-0.448 0,-0.143 0.195,-0.261 0.434,-0.261 0.239,0 0.505,-0.183 0.591,-0.408 0.086,-0.224 0.528,-0.489 0.983,-0.589 0.455,-0.1 0.827,-0.274 0.827,-0.386 0,-0.112 0.446,-0.365 0.992,-0.563 0.546,-0.197 0.992,-0.464 0.992,-0.593 0,-0.129 0.345,-0.321 0.766,-0.426 0.421,-0.106 1.052,-0.502 1.404,-0.881 0.351,-0.379 0.724,-0.69 0.83,-0.69 0.203,0 2.046,-1.539 3.24,-2.706 0.392,-0.382 0.841,-0.695 1,-0.695 0.158,0 0.906,-0.638 1.662,-1.418 0.757,-0.779 1.469,-1.417 1.582,-1.417 0.318,0 5.392,-4.987 5.392,-5.299 0,-0.151 0.606,-0.924 1.346,-1.717 2.152,-2.304 2.906,-3.197 2.906,-3.441 0,-0.125 0.255,-0.459 0.567,-0.741 0.312,-0.282 0.567,-0.678 0.567,-0.88 0,-0.202 0.159,-0.469 0.354,-0.594 0.398,-0.255 0.928,-1.045 1.34,-1.999 0.152,-0.35 0.377,-0.638 0.5,-0.638 0.122,0 0.349,-0.24 0.503,-0.533 0.154,-0.294 0.651,-1.251 1.105,-2.127 0.454,-0.875 0.922,-1.592 1.041,-1.592 0.118,0 0.299,-0.383 0.401,-0.85 0.103,-0.468 0.326,-0.851 0.495,-0.851 0.17,0 0.227,-0.081 0.128,-0.18 -0.099,-0.1 0.053,-0.514 0.338,-0.922 0.285,-0.407 0.457,-0.915 0.382,-1.128 -0.075,-0.212 -0.025,-0.468 0.111,-0.567 0.346,-0.251 1.184,-2.01 1.402,-2.943 0.1,-0.429 0.282,-0.78 0.403,-0.78 0.121,0 0.307,-0.574 0.412,-1.276 0.105,-0.701 0.307,-1.275 0.448,-1.275 0.141,0 0.341,-0.638 0.444,-1.418 0.103,-0.779 0.287,-1.417 0.408,-1.417 0.122,0 0.311,-0.67 0.421,-1.488 0.11,-0.819 0.324,-1.642 0.475,-1.83 0.151,-0.187 0.196,-0.591 0.099,-0.897 -0.098,-0.306 -0.044,-0.639 0.118,-0.739 0.162,-0.1 0.295,-0.749 0.295,-1.441 0,-0.723 0.132,-1.259 0.31,-1.259 0.209,0 0.247,-0.462 0.115,-1.418 -0.131,-0.956 -0.094,-1.417 0.115,-1.417 0.199,0 0.31,-0.815 0.31,-2.268 0,-1.323 0.118,-2.268 0.284,-2.268 0.177,0 0.283,-1.701 0.283,-4.536 0,-2.835 -0.106,-4.536 -0.283,-4.536 -0.168,0 -0.284,-1.039 -0.284,-2.551 0,-1.626 -0.11,-2.551 -0.304,-2.551 -0.203,0 -0.239,-0.518 -0.109,-1.56 0.135,-1.074 0.097,-1.559 -0.121,-1.559 -0.19,0 -0.316,-0.559 -0.316,-1.4 0,-0.771 -0.119,-1.475 -0.265,-1.565 -0.146,-0.09 -0.193,-0.608 -0.105,-1.15 0.094,-0.577 0.043,-0.987 -0.123,-0.987 -0.157,0 -0.369,-0.638 -0.473,-1.418 -0.103,-0.779 -0.296,-1.417 -0.429,-1.417 -0.133,0 -0.328,-0.574 -0.433,-1.276 -0.105,-0.702 -0.297,-1.276 -0.426,-1.276 -0.129,0 -0.317,-0.441 -0.418,-0.98 -0.101,-0.539 -0.37,-1.336 -0.597,-1.772 -0.227,-0.435 -0.414,-0.94 -0.415,-1.123 -0.002,-0.411 -0.905,-2.154 -1.243,-2.4 -0.137,-0.1 -0.16,-0.324 -0.053,-0.499 0.108,-0.174 -0.063,-0.681 -0.38,-1.126 -0.317,-0.446 -0.495,-0.891 -0.396,-0.991 0.099,-0.099 0.042,-0.18 -0.128,-0.18 -0.169,0 -0.392,-0.383 -0.495,-0.851 -0.102,-0.468 -0.29,-0.85 -0.417,-0.85 -0.126,0 -0.314,-0.336 -0.417,-0.746 -0.103,-0.411 -0.468,-0.981 -0.81,-1.267 -0.343,-0.286 -0.538,-0.524 -0.434,-0.529 0.104,-0.005 -0.121,-0.552 -0.499,-1.214 -0.379,-0.663 -0.766,-1.428 -0.86,-1.701 -0.095,-0.273 -0.288,-0.496 -0.43,-0.496 -0.141,0 -0.381,-0.287 -0.533,-0.638 -0.412,-0.954 -0.942,-1.744 -1.34,-1.999 -0.195,-0.124 -0.355,-0.402 -0.355,-0.617 0,-0.215 -0.314,-0.638 -0.699,-0.941 -0.384,-0.302 -0.62,-0.628 -0.523,-0.725 0.096,-0.096 -0.163,-0.441 -0.577,-0.767 -0.414,-0.325 -0.752,-0.758 -0.752,-0.962 0,-0.204 -0.638,-0.924 -1.417,-1.6 -0.78,-0.677 -1.418,-1.371 -1.418,-1.543 0,-0.404 -2.933,-3.413 -3.757,-3.854 -0.346,-0.185 -1.124,-0.89 -1.73,-1.567 -0.605,-0.676 -1.256,-1.23 -1.445,-1.23 -0.19,0 -0.686,-0.382 -1.103,-0.85 -0.416,-0.468 -0.89,-0.851 -1.052,-0.851 -0.162,0 -0.576,-0.296 -0.919,-0.659 -0.344,-0.362 -0.848,-0.741 -1.121,-0.841 -0.273,-0.101 -0.496,-0.314 -0.496,-0.475 0,-0.161 -0.175,-0.292 -0.39,-0.292 -0.215,0 -0.552,-0.195 -0.749,-0.433 -0.198,-0.237 -0.424,-0.367 -0.502,-0.288 -0.079,0.079 -0.37,-0.118 -0.647,-0.437 -0.277,-0.319 -0.545,-0.563 -0.596,-0.542 -0.254,0.106 -1.652,-0.59 -1.652,-0.822 0,-0.148 -0.382,-0.352 -0.85,-0.455 -0.468,-0.103 -0.85,-0.294 -0.85,-0.425 0,-0.131 -0.383,-0.323 -0.851,-0.426 -0.468,-0.102 -0.85,-0.295 -0.85,-0.427 0,-0.221 -1.588,-1.064 -2.977,-1.58 -0.312,-0.117 -0.631,-0.24 -0.709,-0.274 -0.078,-0.035 -0.428,-0.156 -0.779,-0.27 -0.351,-0.114 -0.638,-0.328 -0.638,-0.475 0,-0.147 -0.128,-0.188 -0.284,-0.092 -0.156,0.096 -0.283,0.056 -0.283,-0.089 0,-0.145 -0.51,-0.345 -1.134,-0.445 -0.624,-0.1 -1.134,-0.293 -1.134,-0.43 0,-0.137 -0.447,-0.332 -0.992,-0.435 -0.546,-0.102 -0.992,-0.293 -0.992,-0.424 0,-0.131 -0.574,-0.325 -1.276,-0.43 -0.702,-0.105 -1.276,-0.299 -1.276,-0.43 0,-0.131 -0.765,-0.327 -1.701,-0.435 -0.935,-0.109 -1.701,-0.328 -1.701,-0.486 0,-0.159 -0.322,-0.228 -0.715,-0.152 -0.394,0.075 -0.784,0.026 -0.867,-0.109 -0.084,-0.135 -0.591,-0.245 -1.128,-0.245 -0.536,0 -0.975,-0.145 -0.975,-0.321 0,-0.208 -0.348,-0.264 -0.992,-0.16 -0.546,0.089 -0.992,0.042 -0.992,-0.104 0,-0.146 -0.574,-0.266 -1.276,-0.266 -0.765,0 -1.276,-0.129 -1.276,-0.323 0,-0.227 -0.543,-0.267 -1.842,-0.133 -1.196,0.122 -1.843,0.086 -1.843,-0.103 0,-0.192 -2.423,-0.291 -7.087,-0.291 -4.853,0 -7.087,0.095 -7.087,0.303 0,0.203 -0.511,0.241 -1.525,0.114 -0.999,-0.125 -1.592,-0.083 -1.718,0.121 -0.106,0.172 -0.688,0.312 -1.293,0.312 -0.606,0 -1.169,0.111 -1.252,0.246 -0.084,0.135 -0.475,0.183 -0.869,0.108 -0.395,-0.075 -0.876,-0.009 -1.07,0.148 -0.194,0.157 -1.023,0.375 -1.841,0.485 -0.819,0.11 -1.488,0.299 -1.488,0.421 0,0.121 -0.633,0.304 -1.406,0.406 -0.773,0.103 -1.476,0.3 -1.561,0.438 -0.085,0.137 -0.664,0.336 -1.286,0.441 -0.622,0.105 -1.194,0.293 -1.271,0.418 -0.077,0.125 -0.613,0.315 -1.192,0.424 -0.578,0.108 -1.31,0.378 -1.625,0.599 -0.316,0.221 -0.864,0.402 -1.219,0.402 -0.355,0 -0.646,0.149 -0.646,0.331 0,0.181 -0.081,0.249 -0.181,0.15 -0.099,-0.1 -0.528,0.067 -0.953,0.369 -0.425,0.303 -0.854,0.469 -0.953,0.37 -0.1,-0.099 -0.181,-0.032 -0.181,0.15 0,0.182 -0.126,0.331 -0.281,0.331 -0.475,0 -3.121,1.227 -3.121,1.448 0,0.114 -0.382,0.292 -0.85,0.394 -0.468,0.103 -0.851,0.295 -0.851,0.426 0,0.131 -0.382,0.322 -0.85,0.425 -0.468,0.103 -0.851,0.297 -0.851,0.432 0,0.246 -1.122,0.953 -2.055,1.295 -0.273,0.1 -0.496,0.302 -0.496,0.449 0,0.147 -0.113,0.197 -0.251,0.112 -0.139,-0.086 -0.409,0.034 -0.602,0.266 -0.193,0.233 -0.512,0.423 -0.71,0.423 -0.199,0 -0.434,0.191 -0.524,0.425 -0.09,0.234 -0.349,0.425 -0.577,0.425 -0.227,0 -0.658,0.312 -0.958,0.693 -0.907,1.153 -1.952,1.24 -2.184,0.181 -0.106,-0.481 -0.31,-0.874 -0.453,-0.874 -0.144,0 -0.232,-0.096 -0.196,-0.213 0.102,-0.336 -2.212,-4.832 -2.665,-5.176 -0.104,-0.08 -0.278,-0.494 -0.385,-0.921 -0.107,-0.428 -0.313,-0.777 -0.457,-0.777 -0.144,0 -0.34,-0.223 -0.436,-0.496 -0.096,-0.273 -0.469,-0.895 -0.829,-1.383 -0.36,-0.487 -0.594,-0.947 -0.519,-1.022 0.075,-0.075 -0.058,-0.298 -0.295,-0.495 -0.238,-0.198 -0.432,-0.477 -0.432,-0.621 0,-0.145 -0.297,-0.544 -0.659,-0.887 -0.363,-0.343 -0.741,-0.847 -0.842,-1.12 -0.1,-0.273 -0.314,-0.496 -0.475,-0.496 -0.161,0 -0.292,-0.172 -0.292,-0.382 0,-0.209 -0.255,-0.612 -0.567,-0.894 -0.312,-0.282 -0.567,-0.667 -0.567,-0.855 0,-0.188 -0.319,-0.581 -0.709,-0.874 -0.39,-0.292 -0.709,-0.668 -0.709,-0.834 0,-0.166 -0.446,-0.735 -0.992,-1.264 -0.546,-0.529 -0.992,-1.061 -0.992,-1.182 0,-0.542 -11.487,-11.558 -12.083,-11.587 -0.137,-0.007 -0.562,-0.389 -0.944,-0.851 -0.383,-0.461 -0.852,-0.838 -1.043,-0.838 -0.191,0 -0.581,-0.297 -0.866,-0.661 -0.286,-0.363 -0.678,-0.607 -0.871,-0.543 -0.194,0.065 -0.352,-0.014 -0.352,-0.174 0,-0.285 -1.06,-0.976 -2.055,-1.341 -0.273,-0.1 -0.496,-0.298 -0.496,-0.439 0,-0.142 -0.287,-0.382 -0.638,-0.534 -0.954,-0.412 -1.744,-0.942 -1.999,-1.34 -0.124,-0.195 -0.411,-0.354 -0.637,-0.354 -0.226,0 -0.412,-0.118 -0.412,-0.261 0,-0.144 -0.372,-0.343 -0.826,-0.443 -0.455,-0.1 -0.893,-0.353 -0.973,-0.563 -0.081,-0.209 -0.538,-0.467 -1.016,-0.572 -0.479,-0.105 -0.87,-0.298 -0.87,-0.429 0,-0.131 -0.383,-0.323 -0.85,-0.425 -0.468,-0.103 -0.851,-0.294 -0.851,-0.426 0,-0.131 -0.382,-0.322 -0.85,-0.425 -0.468,-0.103 -0.851,-0.294 -0.851,-0.425 0,-0.131 -0.382,-0.323 -0.85,-0.425 -0.468,-0.103 -0.851,-0.294 -0.851,-0.426 0,-0.131 -0.382,-0.322 -0.85,-0.425 -0.468,-0.102 -0.851,-0.29 -0.851,-0.416 0,-0.126 -0.446,-0.313 -0.992,-0.416 -0.545,-0.102 -0.992,-0.297 -0.992,-0.434 0,-0.136 -0.415,-0.337 -0.921,-0.445 -0.507,-0.108 -1.049,-0.295 -1.205,-0.415 -0.156,-0.12 -0.698,-0.307 -1.205,-0.415 -0.507,-0.108 -0.921,-0.302 -0.921,-0.431 0,-0.129 -0.255,-0.168 -0.567,-0.087 -0.317,0.083 -0.567,0.009 -0.567,-0.168 0,-0.174 -0.319,-0.316 -0.709,-0.316 -0.39,0 -0.709,-0.116 -0.709,-0.257 0,-0.142 -0.255,-0.191 -0.567,-0.109 -0.311,0.082 -0.567,0.01 -0.567,-0.158 0,-0.169 -0.637,-0.392 -1.417,-0.495 -0.78,-0.104 -1.417,-0.287 -1.417,-0.407 0,-0.121 -0.766,-0.308 -1.701,-0.417 -0.936,-0.109 -1.701,-0.3 -1.701,-0.424 0,-0.125 -0.925,-0.319 -2.056,-0.432 -1.13,-0.112 -2.123,-0.312 -2.207,-0.444 -0.084,-0.131 -1.392,-0.326 -2.906,-0.433 -1.514,-0.106 -2.753,-0.314 -2.753,-0.46 0,-0.151 -0.861,-0.228 -1.967,-0.177 -1.081,0.05 -2.059,-0.002 -2.173,-0.116 -0.272,-0.272 -13.563,-0.27 -13.835,0.002 m 217.833,16.587 c 0,0.117 -0.765,0.213 -1.701,0.213 -1.017,0 -1.701,0.122 -1.701,0.303 0,0.166 -0.225,0.231 -0.501,0.143 -0.327,-0.104 -0.685,0.087 -1.032,0.548 -0.292,0.389 -0.704,0.707 -0.916,0.707 -0.212,0 -0.386,0.163 -0.386,0.362 0,0.199 -0.255,0.581 -0.567,0.848 -0.312,0.267 -0.567,0.731 -0.567,1.032 0,0.3 -0.152,0.596 -0.339,0.659 -0.717,0.239 -0.658,5.382 0.08,6.925 0.734,1.532 2.16,3.214 2.725,3.214 0.203,0 0.369,0.131 0.369,0.291 0,0.493 1.493,0.944 2.874,0.868 0.724,-0.04 1.401,0.066 1.506,0.235 0.274,0.444 33.891,0.433 33.891,-0.011 0,-0.213 0.517,-0.276 1.559,-0.19 0.858,0.072 1.559,0.034 1.559,-0.084 0,-0.117 0.383,-0.297 0.851,-0.4 0.467,-0.103 0.85,-0.307 0.85,-0.455 0,-0.147 0.321,-0.39 0.714,-0.539 0.393,-0.149 0.836,-0.593 0.985,-0.985 0.149,-0.393 0.392,-0.714 0.54,-0.714 0.147,0 0.352,-0.383 0.454,-0.85 0.103,-0.468 0.305,-0.851 0.448,-0.851 0.652,0 0.287,-5.535 -0.45,-6.83 -0.392,-0.687 -0.79,-1.474 -0.885,-1.749 -0.095,-0.274 -0.467,-0.573 -0.827,-0.663 -0.36,-0.09 -0.719,-0.332 -0.797,-0.537 -0.079,-0.205 -0.535,-0.459 -1.013,-0.564 -0.478,-0.105 -0.87,-0.308 -0.87,-0.452 0,-0.143 -0.68,-0.261 -1.512,-0.261 -0.831,0 -1.588,-0.076 -1.681,-0.169 -0.249,-0.25 -33.66,-0.293 -33.66,-0.044"
     stroke="none"
     fill="#b4b4b4"
     fill-rule="evenodd"
     style="fill:#000000;fill-opacity:1" />
  <path
     id="path1"
     d="m 6.3200415,114.20257 c 0.029,61.47 0.1009995,111.067 0.1589995,110.214 0.059,-0.853 0.241,-1.712 0.405,-1.91 0.164,-0.198 0.219,-0.672 0.123,-1.054 -0.096,-0.383 -0.046,-0.774 0.11,-0.871 0.157,-0.097 0.285,-0.607 0.285,-1.135 0,-0.527 0.133,-1.041 0.295,-1.141 0.162,-0.1 0.221,-0.416 0.13,-0.701 -0.09,-0.286 -0.043,-0.595 0.106,-0.687 0.148,-0.092 0.356,-0.676 0.461,-1.298 0.105,-0.622 0.308,-1.203 0.45,-1.291 0.142,-0.088 0.259,-0.356 0.259,-0.596 0,-0.412 0.378,-1.398 1.287,-3.357 0.217,-0.468 0.476,-1.202 0.576,-1.63 0.101,-0.429 0.286,-0.78 0.413,-0.78 0.127,0 0.314,-0.383 0.417,-0.85 0.103,-0.468 0.304,-0.851 0.448,-0.851 0.143,0 0.261,-0.195 0.261,-0.434 0,-0.239 0.183,-0.505 0.408,-0.591 0.224,-0.086 0.489,-0.528 0.589,-0.983 0.1,-0.455 0.307,-0.827 0.459,-0.827 0.153,0 0.208,-0.113 0.123,-0.251 -0.086,-0.138 0.034,-0.409 0.266,-0.602 0.233,-0.193 0.423,-0.476 0.423,-0.629 0,-0.153 0.382,-0.762 0.849999,-1.353 0.468,-0.59 0.851,-1.159 0.851,-1.263 0,-0.105 0.309,-0.533 0.686,-0.952 0.378,-0.419 1.335,-1.475 2.127,-2.348 0.791,-0.872 1.439,-1.703 1.439,-1.845 0,-0.142 0.523,-0.704 1.163,-1.248 0.639,-0.545 1.832,-1.596 2.649,-2.337 0.818,-0.74 1.57,-1.346 1.672,-1.346 0.102,0 0.409001,-0.197 0.682001,-0.438 0.472,-0.417 2.711,-2.164 3.346,-2.612 0.739,-0.52 1.456,-0.949 2.111,-1.262 0.39,-0.186 1.067,-0.582 1.506,-0.88 1.301,-0.884 3.312,-1.895 3.77,-1.895 0.234,0 0.983,-0.311 1.663,-0.691 0.681,-0.38 1.79,-0.849 2.464,-1.042 0.675,-0.193 1.355,-0.445 1.511,-0.559 0.156,-0.115 0.762,-0.298 1.347,-0.408 0.584,-0.109 1.063,-0.299 1.063,-0.422 0,-0.124 0.797,-0.315 1.771,-0.426 0.975,-0.11 1.91,-0.312 2.078,-0.447 0.169,-0.136 1.417,-0.332 2.774,-0.437 1.357,-0.104 2.534,-0.298 2.616,-0.43 0.082,-0.133 1.978,-0.241 4.213,-0.241 4.376,0 4.407,-0.011 4.407,-1.566 0,-0.368 0.119,-0.742 0.264,-0.831 0.145,-0.09 0.351,-0.865 0.458,-1.722 0.107,-0.857 0.299,-1.622 0.426,-1.701 0.126,-0.078 0.318,-0.842 0.424,-1.697 0.107,-0.855 0.3,-1.555 0.428,-1.555 0.128,0 0.32,-0.574 0.425,-1.275 0.105,-0.702 0.318,-1.276 0.473,-1.276 0.155,0 0.21,-0.187 0.122,-0.416 -0.088,-0.229 -0.049,-0.485 0.086,-0.569 0.136,-0.083 0.333,-0.661 0.438,-1.283 0.105,-0.622 0.293,-1.194 0.418,-1.271 0.124,-0.077 0.31,-0.588 0.413,-1.135 0.103,-0.548 0.309,-0.996 0.457,-0.996 0.149,0 0.271,-0.29 0.271,-0.645 0,-0.356 0.175,-0.898 0.389,-1.205 0.214,-0.308 0.479,-0.974 0.59,-1.481 0.11,-0.506 0.307,-0.921 0.439,-0.921 0.131,0 0.322,-0.383 0.425,-0.851 0.103,-0.467 0.304,-0.85 0.448,-0.85 0.143,0 0.26,-0.135 0.26,-0.299 0,-0.427 1.087,-2.757 1.367,-2.93 0.129,-0.079 0.405,-0.661 0.613,-1.293 0.209,-0.631 0.471,-1.148 0.584,-1.148 0.113,0 0.284,-0.223 0.379,-0.496 0.096,-0.273 0.491,-1.006 0.877,-1.63 0.386,-0.624 0.784,-1.357 0.884,-1.63 0.1,-0.273 0.295,-0.496 0.432,-0.496 0.138,0 0.251,-0.133 0.251,-0.295 0,-0.336 1.165,-2.066 1.488,-2.209 0.117,-0.052 0.213,-0.256 0.213,-0.452 0,-0.197 0.255,-0.589 0.567,-0.871 0.311,-0.282 0.567,-0.654 0.567,-0.826 0,-0.173 0.255,-0.473 0.567,-0.668 0.311,-0.194 0.567,-0.488 0.567,-0.653 0,-0.354 2.022,-2.799 3.331,-4.026 0.506,-0.475 0.922,-1.003 0.924,-1.172 0.004,-0.339 6.885,-7.255 7.218,-7.255 0.114,0 1.133,-0.829 2.265,-1.842 1.133,-1.014 2.162,-1.843 2.287,-1.843 0.125,0 0.43,-0.188 0.677,-0.418 1.232,-1.147 2.542,-2.133 2.833999,-2.133 0.179,0 0.399,-0.192 0.489,-0.426 0.089,-0.234 0.282,-0.425 0.427,-0.425 0.313,0 2.043,-1.181 2.179,-1.488 0.052,-0.117 0.26,-0.213 0.462,-0.213 0.201,0 0.524,-0.19 0.717,-0.422 0.193,-0.232 0.463,-0.352 0.602,-0.267 0.138,0.086 0.251,0.041 0.251,-0.098 0,-0.14 0.67,-0.602 1.488,-1.027 1.859,-0.965 2.582,-1.393 2.767,-1.636 0.08,-0.105 0.494,-0.278 0.921,-0.385 0.428,-0.107 0.777,-0.295 0.777,-0.417 0,-0.122 0.35,-0.31 0.777,-0.417 0.427,-0.107 0.842,-0.281 0.921,-0.385 0.264,-0.346 4.389,-2.331 4.83,-2.324 0.238,0.004 0.691,-0.173 1.007,-0.394 0.315,-0.221 1.047,-0.491 1.625,-0.599 0.579,-0.109 1.115,-0.3 1.192,-0.424 0.077,-0.125 0.65,-0.313 1.273,-0.418 0.622,-0.106 1.132,-0.294 1.132,-0.418 0,-0.125 0.574,-0.313 1.276,-0.418 0.701,-0.105 1.275,-0.299 1.275,-0.431 0,-0.131 0.638,-0.327 1.418,-0.434 0.779,-0.107 1.483,-0.302 1.563,-0.432 0.081,-0.13 0.846,-0.324 1.701,-0.431 0.856,-0.107 1.555,-0.297 1.555,-0.421 0,-0.125 0.957,-0.316 2.126,-0.426 1.17,-0.11 2.126,-0.3 2.126,-0.423 0,-0.123 1.214,-0.315 2.698,-0.426 1.483,-0.111 2.768,-0.317 2.855,-0.457 0.087,-0.141 0.961,-0.174 1.942,-0.073 1.198,0.123 1.848,0.078 1.981,-0.136 0.281,-0.455 14.054,-0.45 14.054,0.006 0,0.228 0.546,0.273 1.833,0.153 1.008,-0.094 1.897,-0.068 1.975,0.058 0.078,0.127 1.382,0.317 2.897,0.424 1.516,0.106 2.892,0.304 3.058,0.439 0.165,0.136 1.164,0.338 2.218,0.45 1.055,0.111 1.982,0.306 2.06,0.433 0.078,0.126 0.842,0.317 1.697,0.424 0.855,0.107 1.555,0.291 1.555,0.409 0,0.118 0.632,0.298 1.405,0.401 0.774,0.102 1.476,0.299 1.561,0.437 0.085,0.138 0.664,0.336 1.286,0.441 0.622,0.106 1.203,0.308 1.291,0.45 0.088,0.143 0.375,0.263 0.639,0.269 0.264,0.005 0.99,0.256 1.613,0.557 0.624,0.301 1.336,0.552 1.583,0.557 0.247,0.006 0.545,0.106 0.662,0.223 0.117,0.117 0.297,0.221 0.401,0.233 0.536,0.057 8.878,4.102 9.122,4.422 0.08,0.104 0.494,0.278 0.921,0.385 0.428,0.107 0.777,0.288 0.777,0.402 0,0.207 1.539,1.005 1.581,0.821 0.012,-0.054 0.482,0.253 1.044,0.682 0.563,0.429 1.152,0.78 1.311,0.78 0.158,0 0.39,0.159 0.515,0.354 0.254,0.398 1.045,0.928 1.998,1.34 0.351,0.152 0.638,0.392 0.638,0.534 0,0.141 0.224,0.338 0.496,0.436 0.972,0.351 1.553,0.76 3.649,2.566 0.643,0.554 1.293,1.006 1.446,1.006 0.153,0 0.571,0.383 0.929,0.851 0.359,0.468 0.794,0.85 0.967,0.85 0.37,0 10.089,9.669 10.089,10.037 0,0.137 0.384,0.646 0.854,1.131 0.469,0.484 1.298,1.455 1.842,2.156 0.543,0.702 1.18,1.478 1.414,1.725 0.234,0.247 0.426,0.539 0.426,0.649 0,0.241 1.178,1.949 1.514,2.195 0.287,0.21 0.96,1.336 1.208,2.022 0.099,0.273 0.283,0.496 0.41,0.496 0.127,0 0.517,0.574 0.867,1.276 0.351,0.702 0.729,1.276 0.84,1.276 0.111,0 0.29,0.349 0.397,0.777 0.108,0.427 0.281,0.841 0.386,0.921 0.319,0.243 0.827,1.161 2.216,4.003 1.41,2.887 1.742,3.114 2.819,1.925 0.268,-0.297 0.645,-0.539 0.838,-0.539 0.193,0 0.424,-0.191 0.514,-0.425 0.09,-0.234 0.359,-0.425 0.598,-0.425 0.238,0 0.434,-0.126 0.434,-0.279 0,-0.153 0.319,-0.358 0.708,-0.456 0.39,-0.097 0.709,-0.291 0.709,-0.43 0,-0.139 0.185,-0.253 0.411,-0.253 0.226,0 0.513,-0.159 0.638,-0.354 0.279,-0.437 0.911,-0.831 2.92,-1.823 0.857,-0.424 1.75,-0.917 1.984,-1.097 0.234,-0.18 1.191,-0.632 2.126,-1.004 0.936,-0.373 1.766,-0.764 1.846,-0.87 0.079,-0.106 0.494,-0.281 0.921,-0.388 0.427,-0.107 0.777,-0.295 0.777,-0.416 0,-0.122 0.447,-0.305 0.992,-0.408 0.546,-0.102 0.992,-0.293 0.992,-0.424 0,-0.131 0.574,-0.325 1.276,-0.43 0.702,-0.105 1.276,-0.303 1.276,-0.44 0,-0.137 0.574,-0.335 1.276,-0.44 0.701,-0.105 1.275,-0.297 1.275,-0.425 0,-0.129 0.606,-0.322 1.347,-0.429 0.74,-0.107 1.492,-0.311 1.671,-0.453 0.178,-0.141 0.979,-0.335 1.78,-0.429 0.8,-0.095 1.52,-0.278 1.6,-0.407 0.079,-0.128 0.522,-0.158 0.984,-0.065 0.502,0.1 0.839,0.048 0.839,-0.129 0,-0.173 1.184,-0.38 2.841,-0.497 1.563,-0.111 2.91,-0.313 2.994,-0.448 0.196,-0.318 14.211,-0.325 14.408,-0.007 0.082,0.132 1.45,0.326 3.041,0.43 1.59,0.104 3.06,0.329 3.266,0.5 0.206,0.171 0.687,0.232 1.069,0.136 0.383,-0.096 0.764,-0.063 0.848,0.073 0.084,0.136 0.917,0.334 1.851,0.44 0.935,0.105 1.765,0.298 1.846,0.429 0.08,0.13 0.848,0.325 1.705,0.432 0.857,0.107 1.623,0.299 1.701,0.426 0.079,0.128 0.607,0.319 1.174,0.425 0.566,0.106 1.237,0.308 1.491,0.447 1.042,0.575 3.153,1.408 3.564,1.408 0.243,0 0.441,0.118 0.441,0.261 0,0.144 0.383,0.345 0.85,0.448 0.468,0.103 0.851,0.304 0.851,0.448 0,0.143 0.229,0.261 0.508,0.261 0.28,0 1.205,0.375 2.056,0.833 0.85,0.459 2.312,1.224 3.247,1.701 0.936,0.477 2.02,1.12 2.41,1.428 0.39,0.309 0.862,0.564 1.049,0.567 0.187,0.004 0.442,0.166 0.567,0.361 0.254,0.398 1.045,0.928 1.998,1.34 0.351,0.152 0.638,0.407 0.638,0.566 0,0.16 0.172,0.291 0.382,0.291 0.209,0 0.612,0.255 0.894,0.567 0.282,0.312 0.666,0.567 0.852,0.567 0.186,0 0.632,0.383 0.991,0.85 0.358,0.468 0.779,0.851 0.936,0.851 0.448,0 7.245,6.239 7.269,6.672 0.008,0.162 0.654,0.923 1.433,1.691 0.78,0.768 1.418,1.517 1.418,1.666 0,0.149 0.191,0.473 0.426,0.72 0.234,0.247 0.873,1.023 1.419,1.724 0.546,0.702 1.12,1.43 1.275,1.618 0.155,0.189 0.281,0.417 0.281,0.508 0,0.239 1.237,1.968 1.489,2.079 0.117,0.052 0.212,0.26 0.212,0.462 0,0.202 0.185,0.52 0.411,0.707 0.226,0.188 0.564,0.81 0.752,1.382 0.188,0.572 0.573,1.204 0.857,1.405 0.283,0.2 0.667,0.87 0.852,1.488 0.185,0.618 0.434,1.124 0.553,1.124 0.118,0 0.3,0.382 0.402,0.85 0.103,0.468 0.294,0.851 0.426,0.851 0.131,0 0.322,0.383 0.425,0.85 0.103,0.468 0.496,1.432 0.873,2.142 0.377,0.709 0.69,1.443 0.696,1.629 0.005,0.187 0.256,0.85 0.557,1.474 0.301,0.623 0.552,1.349 0.557,1.613 0.006,0.264 0.123,0.549 0.261,0.635 0.139,0.085 0.341,0.635 0.451,1.221 0.11,0.587 0.334,1.229 0.498,1.428 0.164,0.198 0.217,0.442 0.119,0.541 -0.099,0.098 -0.054,0.332 0.101,0.518 0.154,0.186 0.363,1.123 0.463,2.081 0.1,0.959 0.279,1.743 0.398,1.743 0.119,0 0.308,1.371 0.421,3.047 0.114,1.7 0.344,3.136 0.52,3.248 0.449,0.286 0.448,18.126 -0.001,18.679 -0.178,0.219 -0.415,1.578 -0.527,3.02 -0.111,1.443 -0.302,2.623 -0.423,2.623 -0.121,0 -0.309,0.829 -0.418,1.842 -0.108,1.014 -0.328,1.843 -0.488,1.843 -0.161,0 -0.22,0.187 -0.132,0.416 0.088,0.229 0.054,0.481 -0.074,0.561 -0.129,0.079 -0.318,0.78 -0.421,1.556 -0.103,0.777 -0.295,1.479 -0.426,1.56 -0.131,0.081 -0.32,0.565 -0.418,1.075 -0.099,0.51 -0.358,1.31 -0.575,1.777 -0.218,0.468 -0.721,1.552 -1.12,2.41 -0.398,0.857 -0.807,1.91 -0.909,2.339 -0.103,0.428 -0.286,0.779 -0.408,0.779 -0.122,0 -0.31,0.35 -0.417,0.777 -0.108,0.427 -0.281,0.842 -0.385,0.921 -0.273,0.207 -0.819,1.104 -1.471,2.413 -0.311,0.624 -0.821,1.517 -1.134,1.984 -0.313,0.468 -0.644,1.065 -0.735,1.327 -0.092,0.262 -0.345,0.545 -0.564,0.629 -0.218,0.084 -0.397,0.29 -0.397,0.457 0,0.322 -0.052,0.397 -1.408,2.019 -0.473,0.566 -0.86,1.129 -0.86,1.252 0,0.24 -0.031,0.277 -2.386,2.846 -0.871,0.95 -1.583,1.821 -1.583,1.936 0,0.404 -8.448,8.386 -8.875,8.386 -0.098,0 -0.617,0.415 -1.155,0.921 -0.538,0.507 -1.507,1.305 -2.154,1.772 -0.648,0.468 -1.388,1.074 -1.647,1.347 -0.258,0.273 -0.632,0.496 -0.831,0.496 -0.2,0 -0.363,0.127 -0.363,0.283 0,0.156 -0.182,0.284 -0.405,0.284 -0.222,0 -0.573,0.16 -0.779,0.355 -0.319,0.302 -1.989,1.229 -4.207,2.334 -0.309,0.154 -0.562,0.378 -0.562,0.496 0,0.119 -0.119,0.217 -0.265,0.217 -0.146,0 -0.624,0.148 -1.063,0.329 -0.439,0.181 -0.957,0.303 -1.152,0.271 -0.195,-0.032 -0.355,0.06 -0.355,0.205 0,0.253 -1.049,0.706 -1.488,0.643 -0.117,-0.017 -0.213,0.083 -0.213,0.222 0,0.139 -0.35,0.335 -0.779,0.435 -0.68,0.159 -1.422,0.461 -3.199,1.302 -0.239,0.113 -0.877,0.301 -1.417,0.417 -0.541,0.115 -1.111,0.308 -1.267,0.428 -0.156,0.12 -0.73,0.311 -1.275,0.425 -0.546,0.114 -1.12,0.306 -1.276,0.426 -0.156,0.12 -0.825,0.308 -1.487,0.417 -0.662,0.11 -1.267,0.303 -1.346,0.43 -0.078,0.127 -0.94,0.322 -1.915,0.434 -0.975,0.112 -1.838,0.307 -1.917,0.432 -0.08,0.125 -1.228,0.348 -2.552,0.495 -1.577,0.175 17.291,0.28 54.788,0.305 l 57.193,0.038 -0.019,-77.605 c -0.015,-58.046 -0.1,-77.426 -0.341,-76.895 -0.448,0.99 -1.944,2.892 -2.129,2.708 -0.084,-0.085 -0.333,0.103 -0.552,0.416 -0.22,0.314 -0.508,0.504 -0.64,0.422 -0.131,-0.081 -0.284,-0.014 -0.338,0.149 -0.525,1.573 -40.715,1.439 -42.462,-0.142 -0.264,-0.239 -0.562,-0.435 -0.662,-0.435 -0.251,0 -2.184,-1.956 -2.184,-2.211 0,-0.114 -0.269,-0.709 -0.597,-1.322 -0.684,-1.275 -0.706,-6.334 -0.031,-7.008 0.19,-0.19 0.345,-0.518 0.345,-0.73 0,-0.527 1.712,-2.62 2.143,-2.62 0.191,0 0.421,-0.191 0.511,-0.425 0.089,-0.234 0.475,-0.425 0.857,-0.425 0.382,0 0.747,-0.16 0.812,-0.355 0.093,-0.279 4.306,-0.354 19.797,-0.354 h 19.679 l 1.275,0.639 c 2.617,1.312 3.069,1.741 4.105,3.897 0.357,0.743 0.41,-6.811 0.42,-60.169999 l 0.011,-61.0209995 -61.162,0.033 c -33.64,0.018 -60.939,0.091 -60.666,0.162 0.272,0.072 0.496,0.248 0.496,0.393 0,0.144 0.095,0.242 0.212,0.217 0.596,-0.126 3.178,2.01 2.865,2.37 -0.041,0.047 0.256,0.417 0.661,0.822 1.922,1.921 1.525,42.7779995 -0.414,42.7779995 -0.132,0 -0.173,0.107 -0.093,0.238 0.247,0.398 -1.871,2.218 -3.354,2.883 -1.593,0.713 -6.948,0.756 -7.181,0.056 -0.063,-0.188 -0.339,-0.342 -0.614,-0.342 -0.275,0 -0.794,-0.255 -1.154,-0.567 -0.36,-0.312 -0.762,-0.567 -0.894,-0.567 -0.132,0 -0.24,-0.182 -0.24,-0.404 0,-0.223 -0.323,-0.659 -0.717,-0.969 -0.594,-0.467 -0.747,-0.887 -0.892,-2.44 -0.097,-1.031 -0.284,-1.942 -0.417,-2.024 -0.353,-0.218 -0.312,-34.625 0.042,-34.843 0.156,-0.096 0.283,-0.7419995 0.283,-1.4349995 0,-1.131 0.736,-3.059 1.337,-3.503 0.122,-0.091 0.35,-0.398 0.506,-0.683 0.156,-0.285 0.397,-0.497 0.535,-0.472 0.139,0.026 0.33,-0.065 0.425,-0.201 0.096,-0.137 0.62,-0.528 1.166,-0.87 l 0.992,-0.622 -135.861,-0.005 -135.8609985,-0.005 0.052,111.7649985 M 201.16804,36.744571 c 0.098,0.158 0.28,0.225 0.403,0.148 0.212,-0.13 1.727,0.549 2.988,1.339 0.692,0.434 13.449,13.321 18.396,18.583 2.006,2.134 4.422,4.688 5.369,5.675 0.947,0.988 1.889,2.119 2.094,2.513 0.442,0.852 0.514,5.917 0.088,6.181 -0.156,0.096 -0.283,0.533 -0.283,0.97 0,0.438 -0.234,1.1 -0.519,1.472 -0.285,0.372 -0.597,0.89 -0.692,1.151 -0.095,0.261 -0.659,0.701 -1.253,0.977 -0.594,0.277 -1.171,0.637 -1.282,0.801 -0.125,0.185 -1.693,0.298 -4.111,0.298 h -3.908 l -2.187,-2.197 c -1.203,-1.208 -2.289,-2.197 -2.414,-2.197 -0.125,0 -1.818,-1.594 -3.762,-3.543 -1.944,-1.949 -3.634,-3.544 -3.755,-3.544 -0.304,0 -13.885,-13.598 -14.291,-14.309 -1.58,-2.768 -1.656,-3.05 -1.651,-6.102 0.008,-3.965 1.018,-5.805 4.292,-7.818 1.178,-0.724 6.09,-1.026 6.478,-0.398 m 164.845,0.019 c 0,0.168 0.159,0.253 0.354,0.188 0.948,-0.319 4.461,2.394 4.894,3.778 0.118,0.378 0.356,0.778 0.53,0.889 0.598,0.383 0.403,6.193 -0.25,7.47 -1.009,1.972 -14.824,15.898 -25.602,25.806 l -2.355,2.166 -3.598,-0.116 c -3.469,-0.112 -4.62,-0.404 -5.44,-1.382 -0.078,-0.092 -0.365,-0.251 -0.638,-0.352 -0.273,-0.1 -0.496,-0.378 -0.496,-0.617 0,-0.238 -0.118,-0.434 -0.263,-0.434 -0.755,0 -1.239,-1.928 -1.371,-5.457 l -0.134,-3.615 2.301,-2.358 c 1.266,-1.297 2.302,-2.459 2.302,-2.582 0,-0.123 1.594,-1.784 3.543,-3.689 1.949,-1.906 3.544,-3.583 3.544,-3.727 0,-0.954 16.022,-15.997 16.797,-15.771 0.116,0.034 0.212,-0.065 0.212,-0.221 0,-0.17 1.134,-0.284 2.835,-0.284 1.846,0 2.835,0.108 2.835,0.308 m -79.488,32.371 c 0.113,0.113 0.879,0.206 1.701,0.206 0.823,0 1.583,0.142 1.69,0.315 0.114,0.183 0.59,0.25 1.145,0.16 0.523,-0.085 1.017,-0.048 1.097,0.082 0.08,0.129 1.04,0.325 2.133,0.435 1.092,0.11 2.05,0.302 2.127,0.428 0.078,0.125 0.779,0.315 1.558,0.423 0.78,0.107 1.417,0.299 1.417,0.426 0,0.128 0.51,0.319 1.133,0.424 0.623,0.105 1.195,0.293 1.272,0.418 0.078,0.124 0.588,0.311 1.136,0.413 0.547,0.103 0.995,0.309 0.995,0.458 0,0.148 0.238,0.27 0.53,0.27 0.84,0 7.642,3.529 8.06,4.182 0.124,0.195 0.361,0.354 0.526,0.354 0.165,0 0.783,0.383 1.373,0.85 0.591,0.468 1.187,0.851 1.325,0.851 0.137,0 0.461,0.223 0.718,0.496 0.257,0.273 1.383,1.262 2.502,2.197 2.726,2.279 3.33,2.906 8,8.307 0.428,0.496 0.779,1.002 0.779,1.124 0,0.123 0.255,0.442 0.567,0.709 0.312,0.267 0.567,0.664 0.567,0.883 0,0.219 0.191,0.471 0.425,0.561 0.234,0.09 0.426,0.348 0.426,0.573 0,0.226 0.095,0.453 0.212,0.505 0.323,0.144 1.488,1.874 1.488,2.21 0,0.162 0.098,0.295 0.217,0.295 0.236,0 0.339,0.175 1.697,2.889999 0.507,1.013 0.921,1.989 0.921,2.169 0,0.18 0.118,0.327 0.261,0.327 0.144,0 0.345,0.383 0.448,0.85 0.103,0.468 0.298,0.851 0.435,0.851 0.136,0 0.332,0.446 0.434,0.992 0.103,0.546 0.294,0.992 0.425,0.992 0.132,0 0.324,0.448 0.426,0.996 0.103,0.547 0.296,1.062 0.43,1.145 0.134,0.083 0.327,0.783 0.43,1.556 0.102,0.773 0.285,1.406 0.405,1.406 0.121,0 0.31,0.797 0.421,1.772 0.11,0.974 0.312,1.91 0.448,2.079 0.136,0.169 0.333,1.608 0.437,3.199 0.104,1.591 0.298,2.959 0.43,3.04 0.318,0.197 0.312,7.486 -0.006,7.486 -0.135,0 -0.314,0.502 -0.396,1.114 -0.161,1.204 -0.166,1.212 -1.924,3.206 -0.652,0.738 -1.298,1.273 -1.436,1.188 -0.137,-0.085 -0.25,-0.03 -0.25,0.123 0,0.152 -0.381,0.361 -0.847,0.463 -0.466,0.103 -0.92,0.304 -1.009,0.448 -0.21,0.34 -4.865,0.342 -5.074,0.003 -0.088,-0.142 -0.663,-0.344 -1.278,-0.448 -1.708,-0.288 -4.175,-2.876 -4.431,-4.646 -0.105,-0.72 -0.313,-1.463 -0.463,-1.652 -0.162,-0.204 -0.191,-1.212 -0.072,-2.481 0.131,-1.401 0.1,-2.137 -0.091,-2.137 -0.281,0 -0.624,-2.295 -0.626,-4.182 0,-0.506 -0.113,-0.921 -0.251,-0.921 -0.138,0 -0.338,-0.7 -0.445,-1.555 -0.107,-0.855 -0.298,-1.619 -0.426,-1.697 -0.127,-0.079 -0.314,-0.586 -0.416,-1.127 -0.101,-0.541 -0.37,-1.339 -0.597,-1.775 -0.227,-0.435 -0.414,-1.015 -0.415,-1.287 -10e-4,-0.273 -0.129,-0.497 -0.285,-0.497 -0.156,0 -0.283,-0.134 -0.283,-0.299 0,-0.36 -1.134,-2.902 -1.384,-3.102 -0.097,-0.078 -0.471,-0.745 -0.83,-1.482 -0.36,-0.737 -0.777,-1.416 -0.926,-1.508 -0.149,-0.092 -0.198,-0.287 -0.108,-0.432 0.089,-0.145 0.024,-0.264 -0.146,-0.264 -0.17,0 -0.387,-0.223 -0.481,-0.496 -0.271,-0.784 -6.192,-6.959999 -7.756,-8.089999 -0.386,-0.278 -1.299,-0.948 -2.031,-1.488 -0.731,-0.54 -1.421,-0.982 -1.532,-0.982 -0.112,0 -0.598,-0.287 -1.08,-0.638 -1.151,-0.839 -6.843,-3.614 -7.41,-3.614 -0.102,0 -0.587,-0.178 -1.079,-0.395 -1.395,-0.617 -2.003,-0.846 -2.31,-0.872 -0.156,-0.013 -0.468,-0.138 -0.692,-0.279 -0.225,-0.14 -1.407,-0.313 -2.628,-0.383 -1.221,-0.071 -2.289,-0.24 -2.373,-0.376 -0.196,-0.318 -7.975,-0.324 -8.171,-0.006 -0.082,0.132 -1.381,0.321 -2.888,0.42 -1.506,0.099 -2.908,0.32 -3.116,0.493 -0.207,0.172 -0.516,0.227 -0.685,0.122 -0.17,-0.105 -0.462,-0.068 -0.651,0.082 -0.188,0.15 -0.947,0.36 -1.688,0.467 -0.741,0.107 -1.347,0.301 -1.347,0.43 0,0.13 -0.35,0.319 -0.779,0.42 -0.839,0.2 -4.371,1.88 -4.61,2.193 -0.079,0.105 -0.494,0.278 -0.921,0.385 -0.427,0.108 -0.777,0.309 -0.777,0.448 0,0.139 -0.132,0.253 -0.295,0.253 -0.374,0 -2.041,1.16 -2.341,1.63 -0.125,0.195 -0.388,0.354 -0.585,0.354 -0.197,0 -0.725,0.383 -1.173,0.851 -0.448,0.467 -0.924,0.85 -1.058,0.85 -0.464,0 -5.554,5.566999 -6.738,7.368999 -0.234,0.356 -0.697,0.982 -1.03,1.39 -0.743,0.912 -1.753,2.551 -1.983,3.218 -0.094,0.273 -0.284,0.497 -0.422,0.497 -0.137,0 -0.25,0.181 -0.25,0.402 0,0.221 -0.437,0.672 -0.972,1.003 -0.535,0.33 -1.013,0.697 -1.063,0.814 -0.193,0.453 -2.177,1.466 -2.872,1.466 -0.401,0 -0.808,0.127 -0.904,0.283 -0.097,0.156 -0.806,0.284 -1.576,0.284 -0.771,0 -1.401,-0.128 -1.401,-0.284 0,-0.156 -0.289,-0.283 -0.642,-0.283 -1.556,0 -4.359,-2.119 -5.506,-4.161 -0.857,-1.525 -1.202,-7.233 -0.465,-7.688 0.182,-0.113 0.419,-0.554 0.526,-0.981999 0.107,-0.427 0.33,-0.776 0.495,-0.776 0.165,0 0.221,-0.08 0.123,-0.177 -0.097,-0.097 0.137,-0.588 0.52,-1.09 0.383,-0.502 0.697,-1.054 0.697,-1.227 0,-0.172 0.169,-0.415 0.375,-0.54 0.207,-0.125 0.467,-0.418 0.578,-0.652 0.549,-1.153 0.864,-1.591 2.576,-3.578 0.553,-0.642 1.006,-1.25 1.006,-1.351 0,-0.101 0.574,-0.733 1.276,-1.405 0.702,-0.673 1.276,-1.362 1.276,-1.533 0,-0.17 0.844,-1.053 1.877,-1.962 1.032,-0.909 2.362,-2.13 2.954,-2.715 0.593,-0.585 1.166,-1.063 1.275,-1.063 0.109,0 0.661,-0.387 1.227,-0.86 0.566,-0.474 1.216,-1.016 1.444,-1.205 0.574,-0.476 1.474,-1.01 2.066,-1.224 0.273,-0.098 0.496,-0.288 0.496,-0.421 0,-0.133 0.702,-0.574 1.559,-0.98 0.858,-0.406 1.56,-0.846 1.56,-0.978 0,-0.132 0.382,-0.324 0.85,-0.427 0.468,-0.103 0.851,-0.294 0.851,-0.425 0,-0.131 0.382,-0.323 0.85,-0.426 0.468,-0.102 0.85,-0.304 0.85,-0.447 0,-0.144 0.226,-0.261 0.501,-0.261 0.275,0 0.976,-0.255 1.558,-0.567 0.582,-0.312 1.313,-0.567 1.626,-0.567 0.312,0 0.568,-0.117 0.568,-0.259 0,-0.142 0.509,-0.344 1.132,-0.45 0.623,-0.105 1.2,-0.3 1.282,-0.433 0.083,-0.134 0.74,-0.331 1.461,-0.439 0.721,-0.109 1.643,-0.37 2.049,-0.582 0.406,-0.212 1.209,-0.386 1.784,-0.387 0.576,-0.001 1.118,-0.117 1.205,-0.259 0.087,-0.141 0.399,-0.193 0.694,-0.117 0.294,0.077 0.62,0.002 0.725,-0.168 0.105,-0.169 0.685,-0.308 1.291,-0.308 0.605,0 1.16,-0.096 1.232,-0.213 0.17,-0.273 12.841,-0.266 13.114,0.007 M 6.3200415,262.04057 l -0.052,23.884 23.4589995,-0.035 c 15.578,-0.023 22.844,-0.123 21.629,-0.296 -1.006,-0.144 -1.963,-0.369 -2.126,-0.501 -0.163,-0.131 -0.967,-0.329 -1.785,-0.439 -0.819,-0.11 -1.553,-0.304 -1.632,-0.432 -0.079,-0.128 -0.652,-0.318 -1.274,-0.423 -0.622,-0.105 -1.194,-0.293 -1.271,-0.418 -0.077,-0.125 -0.614,-0.315 -1.192,-0.424 -0.579,-0.109 -1.31,-0.378 -1.626,-0.599 -0.315,-0.221 -0.853,-0.402 -1.195,-0.402 -0.342,0 -0.665,-0.096 -0.717,-0.213 -0.052,-0.116 -0.541,-0.425 -1.086,-0.686 -3.289,-1.57 -4.192,-2.046 -5.308,-2.799 -0.682,-0.461 -1.352,-0.838 -1.487,-0.838 -0.135,0 -0.288,-0.095 -0.34,-0.212 -0.122,-0.276 -1.846,-1.485 -2.138,-1.501 -0.123,-0.006 -0.537,-0.389 -0.92,-0.85 -0.382,-0.461 -0.833,-0.839 -1.003001,-0.839 -0.169,0 -0.935,-0.637 -1.703,-1.417 -0.768,-0.78 -1.56,-1.417 -1.761,-1.417 -0.201,0 -0.365,-0.125 -0.365,-0.276 0,-0.152 -1.029,-1.396 -2.286,-2.764 -3.593,-3.911 -3.667,-3.997 -3.667,-4.269 0,-0.142 -0.256,-0.489 -0.567,-0.771 -0.312,-0.282 -0.567,-0.684 -0.567,-0.894 0,-0.21 -0.130999,-0.381 -0.290999,-0.381 -0.16,0 -0.418,-0.288 -0.574,-0.638 -0.155,-0.351 -0.596,-1.148 -0.978,-1.772 -0.382,-0.624 -0.777,-1.357 -0.877,-1.63 -0.1,-0.273 -0.284,-0.496 -0.409,-0.496 -0.126,0 -0.312,-0.383 -0.415,-0.851 -0.103,-0.468 -0.29,-0.85 -0.416,-0.85 -0.126,0 -0.313,-0.447 -0.416,-0.992 -0.102,-0.546 -0.298,-0.993 -0.434,-0.993 -0.136,0 -0.338,-0.414 -0.449,-0.921 -0.11,-0.507 -0.375,-1.173 -0.589,-1.48 -0.214,-0.308 -0.389,-0.85 -0.389,-1.205 0,-0.355 -0.123,-0.646 -0.274,-0.646 -0.15,0 -0.359,-0.641 -0.462,-1.424 -0.104,-0.783 -0.301,-1.492 -0.436,-1.576 -0.136,-0.084 -0.17,-0.464 -0.074,-0.844 0.106,-0.422 0.051,-0.692 -0.141,-0.692 -0.173,0 -0.314,-0.375 -0.314,-0.833 0,-0.459 -0.135,-0.918 -0.3,-1.02 -0.172,-0.106 -0.223,-0.536 -0.119,-1.009 0.108,-0.491 0.063,-0.823 -0.111,-0.823 -0.16,0 -0.338,-0.67 -0.395,-1.488 -0.057,-0.819 -0.1279995,9.259 -0.1569995,22.395"
     stroke="none"
     fill="#040404"
     fill-rule="evenodd"
     style="fill:#ffffff;fill-opacity:0" />
  <path
     id="path2"
     d="m 372.05904,45.102571 c 0.001,1.091 0.053,1.503 0.114,0.915 0.061,-0.588 0.06,-1.481 -0.002,-1.985 -0.063,-0.503 -0.113,-0.022 -0.112,1.07 m -40.245,23.246 c 0.001,1.559 0.049,2.161 0.106,1.337 0.058,-0.824 0.057,-2.1 -10e-4,-2.835 -0.058,-0.735 -0.105,-0.061 -0.105,1.498 m -110.734,8.568 c 0.507,0.063 1.336,0.063 1.843,0 0.507,-0.063 0.092,-0.115 -0.921,-0.115 -1.014,0 -1.429,0.052 -0.922,0.115 m 118.214,0 c 0.507,0.063 1.336,0.063 1.843,0 0.507,-0.063 0.092,-0.115 -0.921,-0.115 -1.014,0 -1.429,0.052 -0.922,0.115 m 34.869,42.245999 c 3.781,0.045 9.968,0.045 13.749,0 3.781,-0.044 0.688,-0.081 -6.874,-0.081 -7.562,0 -10.656,0.037 -6.875,0.081 m -12.261,16.374 c 0.648,0.226 2.36,0.288 2.232,0.081 -0.077,-0.124 -0.674,-0.215 -1.327,-0.202 -0.654,0.012 -1.061,0.067 -0.905,0.121 m 36.787,0.06 c 0.431,0.065 1.068,0.063 1.417,-0.004 0.349,-0.067 -0.004,-0.121 -0.783,-0.119 -0.78,0.003 -1.065,0.058 -0.634,0.123 m -346.141999,42.231 c 0.273,0.072 0.72,0.072 0.992,0 0.273,-0.071 0.05,-0.129 -0.496,-0.129 -0.545,0 -0.769,0.058 -0.496,0.129"
     stroke="none"
     fill="#949494"
     fill-rule="evenodd" />
  <path
     id="path3"
     d="m 272.52704,27.580571 c -0.035,9.54 0.031,17.406 0.148,17.478 0.193,0.12 0.19,-12.448 -0.007,-28.588 -0.041,-3.431 -0.105,1.569 -0.141,11.11 m -74.834,9.071 c 0.272,0.071 0.719,0.071 0.992,0 0.273,-0.071 0.049,-0.13 -0.496,-0.13 -0.546,0 -0.769,0.059 -0.496,0.13 m 164.847,0.004 c 0.351,0.068 0.925,0.068 1.276,0 0.351,-0.067 0.064,-0.122 -0.638,-0.122 -0.702,0 -0.989,0.055 -0.638,0.122 m -169.827,2.048 c -0.805,0.768 -1.401,1.438 -1.325,1.488 0.076,0.05 0.808,-0.578 1.626,-1.397 1.882,-1.883 1.651,-1.953 -0.301,-0.091 m 179.035,3.706 c 0,0.545 0.059,0.769 0.13,0.496 0.071,-0.273 0.071,-0.72 0,-0.992 -0.071,-0.273 -0.13,-0.05 -0.13,0.496 m -18.652,0.354 -0.832,0.921 0.921,-0.832 c 0.859,-0.776 1.052,-1.01 0.833,-1.01 -0.049,0 -0.464,0.414 -0.922,0.921 m -63.842,3.331 c 0,0.546 0.058,0.769 0.129,0.496 0.072,-0.273 0.072,-0.719 0,-0.992 -0.071,-0.273 -0.129,-0.05 -0.129,0.496 m 58.456,2.055 -0.833,0.922 0.922,-0.833 c 0.859,-0.776 1.051,-1.01 0.832,-1.01 -0.048,0 -0.463,0.415 -0.921,0.921 m 23.939,-0.133 c -0.093,0.564 -0.052,0.828 0.105,0.671 0.143,-0.143 0.213,-0.561 0.155,-0.93 -0.09,-0.568 -0.13,-0.528 -0.26,0.259 m -27.181,3.322 c -0.689,0.702 -1.188,1.276 -1.11,1.276 0.078,0 0.705,-0.574 1.393,-1.276 0.689,-0.701 1.189,-1.275 1.111,-1.275 -0.078,0 -0.706,0.574 -1.394,1.275 m 18.834,6.733 -0.833,0.922 0.922,-0.833 c 0.858,-0.776 1.051,-1.01 0.832,-1.01 -0.049,0 -0.463,0.415 -0.921,0.921 m -28.473,3.757 c -0.688,0.701 -1.188,1.275 -1.11,1.275 0.078,0 0.705,-0.574 1.394,-1.275 0.688,-0.702 1.188,-1.276 1.11,-1.276 -0.078,0 -0.705,0.574 -1.394,1.276 m -126.293,5.527 c 1.083,1.092 2.033,1.985 2.111,1.985 0.078,0 -0.745,-0.893 -1.828,-1.985 -1.083,-1.091 -2.033,-1.984 -2.111,-1.984 -0.078,0 0.745,0.893 1.828,1.984 m 22.063,0.993 c 0.001,1.091 0.053,1.503 0.114,0.915 0.061,-0.588 0.06,-1.481 -0.002,-1.985 -0.063,-0.503 -0.113,-0.022 -0.112,1.07 m 54.478,0.633 c 0.624,0.062 1.255,0.232 1.404,0.378 0.148,0.145 0.467,0.264 0.708,0.263 0.242,-10e-4 0.074,-0.193 -0.372,-0.426 -0.447,-0.233 -1.276,-0.402 -1.843,-0.375 l -1.031,0.047 1.134,0.113 m 9.713,1.693 c 0.353,0.068 0.863,0.066 1.134,-0.005 0.271,-0.071 -0.017,-0.127 -0.641,-0.124 -0.624,0.003 -0.846,0.062 -0.493,0.129 m -30.974,0.569 c -0.868,0.209 -1.135,0.597 -0.301,0.437 0.404,-0.077 0.804,-0.252 0.889,-0.39 0.085,-0.137 0.115,-0.234 0.066,-0.216 -0.048,0.018 -0.342,0.094 -0.654,0.169 m 34.118,0.153 c 0.143,0.143 0.562,0.212 0.931,0.154 0.567,-0.089 0.527,-0.129 -0.26,-0.259 -0.563,-0.094 -0.828,-0.052 -0.671,0.105 m 34.003,0.514 c 0.067,0.461 0.213,0.894 0.322,0.962 0.11,0.068 0.144,-0.254 0.077,-0.716 -0.068,-0.461 -0.213,-0.894 -0.323,-0.962 -0.11,-0.068 -0.144,0.254 -0.076,0.716 m -56.215,15.006 -1.984,0.183 1.897,0.051 c 1.043,0.027 1.975,-0.078 2.072,-0.234 0.096,-0.156 0.135,-0.261 0.087,-0.233 -0.048,0.027 -0.98,0.132 -2.072,0.233 m 10.318,0.086 c 0.126,0.125 1.045,0.187 2.043,0.138 l 1.814,-0.089 -2.043,-0.138 c -1.123,-0.076 -1.939,-0.036 -1.814,0.089 m -27.327,6.044 c -0.846,0.721 -0.747,0.686 1.098,-0.385 0.394,-0.229 0.456,-0.348 0.178,-0.344 -0.234,0.003 -0.808,0.331 -1.276,0.729 m 51.736,5.918 c 1.319,1.325999 2.461,2.409999 2.539,2.409999 0.078,0 -0.937,-1.084 -2.255,-2.409999 -1.318,-1.325 -2.461,-2.409 -2.539,-2.409 -0.078,0 0.937,1.084 2.255,2.409 m 21.276,-0.992 c 0.004,0.234 0.332,0.808 0.73,1.276 0.72,0.845999 0.685,0.747 -0.386,-1.098 -0.229,-0.394 -0.348,-0.456 -0.344,-0.178 m -163.894,5.475999 c 0.128,0.128 0.728,0.189 1.334,0.136 l 1.1,-0.096 -1.333,-0.137 c -0.734,-0.075 -1.229,-0.032 -1.101,0.097 m -30.234,0.114 c 0.431,0.065 1.069,0.063 1.418,-0.004 0.348,-0.067 -0.004,-0.121 -0.784,-0.119 -0.779,0.003 -1.065,0.058 -0.634,0.123 m -3.902,0.647 -1.134,0.203 1.047,0.04 c 0.575,0.022 1.125,-0.087 1.221,-0.243 0.097,-0.156 0.136,-0.266 0.088,-0.243 -0.048,0.022 -0.598,0.131 -1.222,0.243 m 38.696,0.112 c 0,0.061 0.5,0.159 1.11,0.218 0.611,0.058 1.05,0.007 0.976,-0.112 -0.135,-0.218 -2.086,-0.317 -2.086,-0.106 m -41.956,0.659 c -1.039,0.187 -1.303,0.573 -0.289,0.424 0.475,-0.07 0.933,-0.239 1.018,-0.377 0.085,-0.138 0.116,-0.234 0.068,-0.213 -0.049,0.022 -0.407,0.096 -0.797,0.166 m 45.996,0.275 c 0.273,0.071 0.719,0.071 0.992,0 0.273,-0.072 0.05,-0.13 -0.496,-0.13 -0.546,0 -0.769,0.058 -0.496,0.13 m 52.316,1.24 c 0.068,0.462 0.213,0.895 0.323,0.962 0.11,0.068 0.144,-0.254 0.076,-0.715 -0.067,-0.462 -0.212,-0.895 -0.322,-0.963 -0.11,-0.067 -0.144,0.255 -0.077,0.716 m 16.409,1.011 c -0.284,0.38 -0.453,0.846 -0.377,1.036 0.096,0.235 0.147,0.217 0.163,-0.059 0.012,-0.221 0.234,-0.637 0.493,-0.923 0.259,-0.286 0.418,-0.57 0.354,-0.632 -0.064,-0.062 -0.349,0.198 -0.633,0.578 m 91.874,1.96 c 0.074,0.387 0.229,0.762 0.344,0.833 0.114,0.071 0.148,-0.188 0.074,-0.575 -0.074,-0.387 -0.229,-0.762 -0.344,-0.833 -0.114,-0.071 -0.148,0.188 -0.074,0.575 m -105.816,0.935 c 0.309,0.365 0.818,0.795 1.132,0.956 0.602,0.308 0.514,0.213 -0.846,-0.916 -0.818,-0.679 -0.828,-0.681 -0.286,-0.04 m 106.799,2.312 c 0,0.546 0.059,0.769 0.13,0.497 0.071,-0.273 0.071,-0.72 0,-0.993 -0.071,-0.273 -0.13,-0.049 -0.13,0.496 m -100.987,0 -1.559,0.191 1.472,0.047 c 0.809,0.025 1.55,-0.082 1.647,-0.238 0.096,-0.156 0.135,-0.262 0.087,-0.237 -0.048,0.026 -0.789,0.132 -1.647,0.237 m 83.279,2.706 c 0.074,0.388 0.228,0.763 0.343,0.834 0.115,0.071 0.148,-0.188 0.074,-0.576 -0.074,-0.387 -0.229,-0.762 -0.343,-0.833 -0.115,-0.071 -0.149,0.188 -0.074,0.575 m -215.821,0.716 c -0.103,0.167 -0.462,0.414 -0.796,0.549 -0.416,0.168 -0.466,0.251 -0.157,0.264 0.249,0.01 0.683,-0.237 0.965,-0.549 0.282,-0.312 0.437,-0.567 0.344,-0.567 -0.093,0 -0.253,0.136 -0.356,0.303 m 234.391,0.831 c 0,0.701 0.056,0.988 0.123,0.638 0.068,-0.351 0.068,-0.925 0,-1.276 -0.067,-0.351 -0.123,-0.064 -0.123,0.638 m -236.821,0.808 c -0.372,0.288 -0.868,0.597 -1.101,0.686 -0.378,0.144 -0.378,0.163 0,0.174 0.233,0.007 0.808,-0.301 1.275,-0.685 0.984,-0.807 0.834,-0.958 -0.174,-0.175 m 259.99,1.46 -1.276,0.198 1.134,0.014 c 0.624,0.008 1.453,-0.088 1.843,-0.212 0.895,-0.287 0.143,-0.287 -1.701,0 m 36.57,-0.01 c 0.702,0.234 2.755,0.388 2.528,0.19 -0.065,-0.057 -0.82,-0.176 -1.678,-0.265 -1.006,-0.104 -1.308,-0.078 -0.85,0.075 m -299.666999,0.789 -0.688,0.78 0.851,-0.709 c 0.468,-0.39 0.903999,-0.741 0.968999,-0.78 0.065,-0.039 -0.009,-0.07 -0.163999,-0.07 -0.154,0 -0.59,0.35 -0.968,0.779 m 110.155999,0.818 c 0.156,0.137 0.729,0.631 1.275,1.098 l 0.991,0.848 -0.708,-0.805 c -0.389,-0.444 -0.963,-0.938 -1.275,-1.098 -0.311,-0.161 -0.439,-0.18 -0.283,-0.043 m 148.146,1.346 -0.684,0.884 0.811,-0.771 c 0.446,-0.424 0.754,-0.822 0.684,-0.884 -0.069,-0.062 -0.434,0.285 -0.811,0.771 m -261.841999,0.529 -0.833,0.922 0.921,-0.833 c 0.859,-0.776 1.052,-1.01 0.833,-1.01 -0.049,0 -0.463,0.415 -0.921,0.921 m 244.352999,3.048 c 0,2.105 0.044,2.966 0.099,1.913 0.054,-1.052 0.054,-2.774 0,-3.827 -0.055,-1.052 -0.099,-0.191 -0.099,1.914 m 16.464,-1.559 c -0.073,0.233 -0.196,0.623 -0.272,0.865 -0.076,0.242 -0.027,0.371 0.108,0.287 0.136,-0.083 0.308,-0.473 0.383,-0.865 0.148,-0.775 -0.005,-0.975 -0.219,-0.287 m -137.057,5.669 c 2.413,2.417 4.451,4.394 4.529,4.394 0.078,0 -1.833,-1.977 -4.246,-4.394 -2.413,-2.416 -4.451,-4.394 -4.529,-4.394 -0.078,0 1.833,1.978 4.246,4.394 m -129.991999,-1.771 -1.121,1.204 1.205,-1.12 c 1.12,-1.042 1.335,-1.289 1.12,-1.289 -0.046,0 -0.588,0.542 -1.204,1.205 m 233.257999,-0.071 c 0,0.701 0.055,0.988 0.123,0.638 0.068,-0.351 0.068,-0.925 0,-1.276 -0.068,-0.351 -0.123,-0.064 -0.123,0.638 m -235.937999,2.693 c -0.689,0.701 -1.188,1.276 -1.11,1.276 0.077,0 0.705,-0.575 1.393,-1.276 0.689,-0.702 1.188,-1.276 1.111,-1.276 -0.078,0 -0.706,0.574 -1.394,1.276 m 236.638999,0.836 c 0.072,0.373 0.468,0.975 0.881,1.338 l 0.751,0.661 -0.638,-0.727 c -0.351,-0.4 -0.638,-0.935 -0.638,-1.188 0,-0.254 -0.109,-0.529 -0.243,-0.611 -0.133,-0.083 -0.184,0.155 -0.113,0.527 m 81.929,0.875 c -0.708,0.947 -0.616,1.211 0.103,0.297 0.33,-0.42 0.553,-0.807 0.496,-0.861 -0.056,-0.055 -0.326,0.199 -0.599,0.564 m -67.949,1.349 c -1.191,1.397 -1.201,1.423 -0.189,0.483 0.897,-0.832 1.815,-2.016 1.529,-1.971 -0.045,0.007 -0.647,0.677 -1.34,1.488 m -12.183,0.271 c 0.065,0.039 0.501,0.39 0.968,0.779 l 0.851,0.709 -0.687,-0.779 c -0.378,-0.429 -0.814,-0.78 -0.969,-0.78 -0.155,0 -0.228,0.032 -0.163,0.071 m -243.493999,2.522 c -0.521,0.592 -0.882,1.24 -0.802,1.439 0.106,0.264 0.151,0.25 0.168,-0.05 0.012,-0.226 0.428,-0.83 0.924,-1.342 0.496,-0.512 0.847,-0.974 0.78,-1.028 -0.068,-0.053 -0.549,0.388 -1.07,0.981 m 249.073999,-0.403 c 0.51,0.063 1.275,0.062 1.701,-0.003 0.426,-0.065 0.009,-0.116 -0.926,-0.115 -0.936,0.002 -1.284,0.055 -0.775,0.118 m 48.046,0.005 c 1.364,0.052 3.597,0.052 4.961,0 1.364,-0.052 0.248,-0.094 -2.48,-0.094 -2.729,0 -3.845,0.042 -2.481,0.094 m -98.512,4.536 c 1.443,0.052 3.803,0.052 5.245,0 1.442,-0.051 0.262,-0.093 -2.622,-0.093 -2.885,0 -4.065,0.042 -2.623,0.093 m 20.157,1.845 c 0.143,0.143 0.562,0.213 0.931,0.155 0.567,-0.09 0.527,-0.13 -0.26,-0.26 -0.564,-0.094 -0.828,-0.052 -0.671,0.105 m 3.314,0.798 c 0.067,0.109 0.5,0.255 0.962,0.322 0.461,0.068 0.783,0.034 0.715,-0.076 -0.067,-0.11 -0.5,-0.255 -0.962,-0.323 -0.461,-0.068 -0.783,-0.033 -0.715,0.077 m 2.827,0.839 c 0.071,0.114 0.446,0.269 0.834,0.343 0.387,0.074 0.646,0.041 0.575,-0.074 -0.071,-0.115 -0.446,-0.269 -0.833,-0.343 -0.388,-0.075 -0.647,-0.041 -0.576,0.074 m -61.128,6.47 c -0.372,0.289 -0.868,0.598 -1.102,0.687 -0.377,0.143 -0.377,0.163 0,0.174 0.234,0.006 0.808,-0.302 1.276,-0.685 0.984,-0.807 0.834,-0.958 -0.174,-0.176 m 75.801,0.326 c 0.396,0.312 0.813,0.567 0.927,0.567 0.113,0 -0.119,-0.255 -0.515,-0.567 -0.396,-0.312 -0.813,-0.567 -0.927,-0.567 -0.113,0 0.118,0.255 0.515,0.567 m 16.104,12.772 c -0.013,0.243 0.456,0.88 1.04,1.418 l 1.063,0.977 -0.886,-0.993 c -0.488,-0.545 -0.956,-1.183 -1.041,-1.417 -0.133,-0.368 -0.157,-0.366 -0.176,0.015 m -273.478999,11.166 c -0.086,0.225 -0.107,0.64 -0.046,0.922 0.07,0.32 0.167,0.166 0.259,-0.409 0.154,-0.966 0.054,-1.208 -0.213,-0.513 m -8.712,2.356 c -0.073,0.116 1.163,0.178 2.747,0.137 5.212,-0.135 5.779,-0.244 1.55,-0.298 -2.291,-0.028 -4.224,0.044 -4.297,0.161 m -4.788,0.838 c 0.353,0.068 0.863,0.065 1.134,-0.006 0.271,-0.071 -0.018,-0.126 -0.641,-0.123 -0.624,0.003 -0.846,0.061 -0.493,0.129 m -3.618,0.65 -0.992,0.209 0.905,0.037 c 0.497,0.021 0.983,-0.09 1.079,-0.246 0.097,-0.156 0.136,-0.267 0.088,-0.246 -0.048,0.02 -0.534,0.131 -1.08,0.246 m -12.434,5.112 c -0.368,0.307 -0.535,0.558 -0.371,0.558 0.164,0 0.383,-0.137 0.486,-0.304 0.103,-0.167 0.461,-0.414 0.796,-0.549 0.352,-0.142 0.43,-0.249 0.184,-0.254 -0.234,-0.005 -0.727,0.242 -1.095,0.549 m 318.816999,7.232 c 0.074,0.388 0.228,0.763 0.343,0.834 0.115,0.071 0.148,-0.188 0.074,-0.576 -0.074,-0.387 -0.229,-0.762 -0.343,-0.833 -0.115,-0.071 -0.149,0.188 -0.074,0.575 m -333.19,4.452 -0.833,0.922 0.921,-0.833 c 0.507,-0.458 0.922,-0.872 0.922,-0.921 0,-0.219 -0.234,-0.026 -1.01,0.832 m 335.307,4.465 c 0,0.546 0.058,0.769 0.129,0.496 0.072,-0.272 0.072,-0.719 0,-0.992 -0.071,-0.273 -0.129,-0.049 -0.129,0.496 m -339.775,1.03 c -0.283999,0.38 -0.452999,0.846 -0.375999,1.035 0.095,0.236 0.146,0.217 0.162,-0.058 0.012,-0.222 0.233999,-0.637 0.492999,-0.923 0.259,-0.286 0.418,-0.571 0.354,-0.632 -0.064,-0.062 -0.349,0.198 -0.633,0.578 m 340.598,6.253 c -0.021,0.966 0.057,1.815 0.174,1.887 0.117,0.072 0.175,-0.462 0.13,-1.188 -0.142,-2.25 -0.264,-2.531 -0.304,-0.699 m 0.077,11.534 c -0.082,0.215 -0.108,1.012 -0.056,1.772 l 0.093,1.382 0.136,-1.773 c 0.138,-1.79 0.1,-2.092 -0.173,-1.381 m -3.668,19.029 c -0.073,0.234 -0.195,0.623 -0.271,0.865 -0.077,0.242 -0.028,0.371 0.107,0.288 0.136,-0.084 0.308,-0.473 0.383,-0.865 0.148,-0.775 -0.004,-0.976 -0.219,-0.288 m -6.745,13.645 c -0.284,0.379 -0.453,0.845 -0.376,1.035 0.095,0.235 0.147,0.217 0.162,-0.058 0.012,-0.222 0.234,-0.637 0.493,-0.923 0.259,-0.286 0.418,-0.571 0.354,-0.633 -0.064,-0.061 -0.348,0.199 -0.633,0.579 m -325.484,16.552 c 1.087,1.173 2.033,2.093 2.104,2.045 0.071,-0.048 -0.818,-1.008 -1.975,-2.132 l -2.104,-2.045 1.975,2.132 m 2.684,3.027 c 0.234,0.084 1.063,0.744 1.843,1.466 l 1.417,1.313 -1.406,-1.489 c -0.774,-0.818 -1.603,-1.478 -1.843,-1.466 -0.38,0.02 -0.382,0.042 -0.011,0.176 m 285.33,10.493 c -0.868,0.209 -1.135,0.597 -0.301,0.438 0.404,-0.077 0.804,-0.253 0.889,-0.39 0.085,-0.138 0.115,-0.235 0.066,-0.217 -0.048,0.018 -0.342,0.094 -0.654,0.169 m -6.205,2.015 c -0.079,0.127 0.232,0.177 0.692,0.109 0.459,-0.067 0.835,-0.172 0.835,-0.232 0,-0.216 -1.387,-0.105 -1.527,0.123 m -2.158,0.618 -0.992,0.209 0.904,0.037 c 0.498,0.021 0.984,-0.09 1.08,-0.246 0.096,-0.156 0.136,-0.267 0.088,-0.246 -0.048,0.02 -0.534,0.131 -1.08,0.246 m -253.720999,0.11 c 0,0.06 0.376,0.164 0.836,0.232 0.459,0.067 0.771,0.018 0.692,-0.11 -0.141,-0.227 -1.528,-0.338 -1.528,-0.122 m 248.799999,0.958 c -0.074,0.12 0.365,0.17 0.976,0.112 0.611,-0.058 1.11,-0.156 1.11,-0.218 0,-0.211 -1.951,-0.112 -2.086,0.106"
     stroke="none"
     fill="#4c4c4c"
     fill-rule="evenodd" />
  <path
     id="path4"
     d="m 285.81104,3.6425715 c 0.066,0.039 0.566,0.453 1.11,0.921 l 0.991,0.851 -0.832,-0.922 c -0.458,-0.506 -0.958,-0.921 -1.111,-0.921 -0.152,0 -0.224,0.032 -0.158,0.071 m -86.772,32.9249995 c 0,0.062 0.5,0.16 1.11,0.218 0.611,0.058 1.05,0.008 0.976,-0.112 -0.135,-0.218 -2.086,-0.317 -2.086,-0.106 m 74.056,9.527 c 0,0.546 0.058,0.769 0.13,0.496 0.071,-0.273 0.071,-0.719 0,-0.992 -0.072,-0.273 -0.13,-0.05 -0.13,0.496 m 7.663,6.724 c 0.431,0.065 1.069,0.063 1.418,-0.004 0.348,-0.068 -0.004,-0.121 -0.784,-0.119 -0.78,0.002 -1.065,0.057 -0.634,0.123 m 61.743,1.05 -0.974,1.156 1.102,-1.054 c 0.606,-0.579 1.044,-1.099 0.974,-1.156 -0.07,-0.056 -0.566,0.418 -1.102,1.054 m -70.957,15.672 c 0.353,0.068 0.863,0.066 1.134,-0.005 0.271,-0.071 -0.017,-0.127 -0.641,-0.124 -0.624,0.004 -0.845,0.062 -0.493,0.129 m 16.439,0 c 0.351,0.068 0.925,0.068 1.276,0 0.351,-0.068 0.064,-0.123 -0.638,-0.123 -0.702,0 -0.989,0.055 -0.638,0.123 m -19.986,0.846 c 0.273,0.071 0.72,0.071 0.992,0 0.273,-0.072 0.05,-0.13 -0.496,-0.13 -0.545,0 -0.769,0.058 -0.496,0.13 m 24.809,0.005 c 0.352,0.068 0.863,0.065 1.134,-0.006 0.271,-0.071 -0.018,-0.126 -0.642,-0.123 -0.623,0.003 -0.845,0.061 -0.492,0.129 m -40.148,5.762 c -0.879,0.732 -0.482,0.724 0.45,-0.009 0.396,-0.312 0.608,-0.563 0.47,-0.558 -0.138,0.005 -0.552,0.26 -0.92,0.567 m 27.104,10.407 c 1.13,0.053 2.98,0.053 4.111,0 1.13,-0.054 0.205,-0.098 -2.056,-0.098 -2.261,0 -3.185,0.044 -2.055,0.098 m -7.367,0.84 c 0.352,0.068 0.863,0.065 1.134,-0.006 0.271,-0.071 -0.018,-0.126 -0.642,-0.123 -0.623,0.003 -0.845,0.061 -0.492,0.129 m -123.533,15.021999 c 5.977,0.202 11.558,0.209 11.438,0.015 -0.073,-0.117 -3.218,-0.186 -6.99,-0.154 -3.772,0.032 -5.773,0.095 -4.448,0.139 m -8.292,0.853 c 0.351,0.067 0.925,0.067 1.276,0 0.35,-0.068 0.063,-0.123 -0.638,-0.123 -0.702,0 -0.989,0.055 -0.638,0.123 m 24.522,0.003 c 0.428,0.065 1.13,0.065 1.559,0 0.428,-0.065 0.078,-0.118 -0.78,-0.118 -0.857,0 -1.208,0.053 -0.779,0.118 m 174.012,17.285 c -0.012,0.654 0.079,1.251 0.202,1.327 0.123,0.076 0.178,-0.331 0.121,-0.904 -0.155,-1.569 -0.298,-1.756 -0.323,-0.423 m -17.032,2.764 c 0,0.537 0.098,1.036 0.218,1.111 0.12,0.074 0.17,-0.365 0.112,-0.976 -0.131,-1.371 -0.33,-1.452 -0.33,-0.135 m -229.071999,1.505 -0.977,1.064 1.063,-0.977 c 0.585,-0.538 1.063,-1.016 1.063,-1.063 0,-0.217 -0.24,-0.013 -1.149,0.976 m 262.904999,3.048 c 0.001,1.247 0.05,1.722 0.11,1.056 0.06,-0.667 0.059,-1.688 -0.002,-2.268 -0.061,-0.581 -0.11,-0.035 -0.108,1.212 m -272.120999,6.166 -0.833,0.921 0.922,-0.833 c 0.858,-0.776 1.051,-1.01 0.832,-1.01 -0.049,0 -0.463,0.415 -0.921,0.922 m 283.433999,2.125 c 1.676,0.05 4.419,0.05 6.095,0 1.676,-0.05 0.304,-0.091 -3.048,-0.091 -3.352,0 -4.723,0.041 -3.047,0.091 m 21.545,0 c 1.676,0.05 4.419,0.05 6.095,0 1.676,-0.05 0.304,-0.091 -3.048,-0.091 -3.352,0 -4.723,0.041 -3.047,0.091 m -112.545,4.52 c 0.273,0.071 0.72,0.071 0.993,0 0.272,-0.072 0.049,-0.13 -0.497,-0.13 -0.545,0 -0.768,0.058 -0.496,0.13 m 11.907,0 c 0.273,0.071 0.719,0.071 0.992,0 0.273,-0.072 0.05,-0.13 -0.496,-0.13 -0.546,0 -0.769,0.058 -0.496,0.13 m -17.86,0.85 c 0.273,0.071 0.72,0.071 0.992,0 0.273,-0.071 0.05,-0.13 -0.496,-0.13 -0.545,0 -0.769,0.059 -0.496,0.13 m 24.242,0.005 c 0.352,0.068 0.863,0.065 1.134,-0.006 0.271,-0.071 -0.018,-0.126 -0.642,-0.123 -0.623,0.003 -0.845,0.061 -0.492,0.129 m -28.211,0.845 c 0.273,0.072 0.72,0.072 0.993,0 0.272,-0.071 0.049,-0.129 -0.497,-0.129 -0.545,0 -0.769,0.058 -0.496,0.129 m 35.519,0.674 c 0.067,0.11 0.5,0.255 0.962,0.323 0.461,0.067 0.783,0.033 0.716,-0.077 -0.068,-0.109 -0.501,-0.255 -0.963,-0.322 -0.461,-0.068 -0.783,-0.034 -0.715,0.076 m -63.174,12.039 c -0.438,0.385 -0.683,0.699 -0.546,0.699 0.137,0 0.55,-0.319 0.916,-0.708 0.847,-0.902 0.66,-0.898 -0.37,0.009 m -231.252999,64.406 c -0.078,0.658 -0.033,1.089 0.099,0.957 0.132,-0.132 0.195,-0.671 0.141,-1.197 -0.096,-0.934 -0.102,-0.928 -0.24,0.24 m -0.765,4.189 c 0.003,0.623 0.061,0.845 0.129,0.492 0.068,-0.352 0.065,-0.863 -0.006,-1.134 -0.071,-0.271 -0.126,0.018 -0.123,0.642 m 346.698999,10.63 c 0,0.546 0.058,0.769 0.129,0.496 0.072,-0.272 0.072,-0.719 0,-0.992 -0.071,-0.273 -0.129,-0.049 -0.129,0.496 m -346.685999,5.103 c 0,0.858 0.054,1.208 0.119,0.78 0.064,-0.429 0.064,-1.131 0,-1.56 -0.065,-0.428 -0.119,-0.078 -0.119,0.78 m 319.250999,32.904 c -0.103,0.167 -0.461,0.414 -0.796,0.549 -0.416,0.168 -0.465,0.252 -0.157,0.264 0.249,0.01 0.683,-0.237 0.965,-0.549 0.283,-0.312 0.438,-0.567 0.345,-0.567 -0.093,0 -0.254,0.137 -0.357,0.303 m -273.906999,13.216 c 0.273,0.072 0.72,0.072 0.992,0 0.273,-0.071 0.05,-0.129 -0.496,-0.129 -0.545,0 -0.769,0.058 -0.496,0.129 m 240.541999,0.005 c 0.353,0.068 0.863,0.066 1.134,-0.005 0.271,-0.071 -0.017,-0.127 -0.641,-0.124 -0.624,0.004 -0.845,0.062 -0.493,0.129"
     stroke="none"
     fill="#747474"
     fill-rule="evenodd" />
</svg>
